/* XPM */
static char *seed4[] = {
/* columns rows colors chars-per-pixel */
"100 100 8 1 ",
"  c #263B31",
". c #294335",
"X c #33583A",
"o c #3B683B",
"O c #537743",
"+ c #AF7E51",
"@ c #758952",
"# c None",
/* pixels */
"####################################################################################################",
"####################################################################################################",
"####################################################################################################",
"####################################################################################################",
"####################################################################################################",
"####################################################################################################",
"####################################################################################################",
"####################################################################################################",
"####################################################################################################",
"####################################################################################################",
"####################################################################################################",
"####################################################################################################",
"####################################################################################################",
"####################################################################################################",
"####################################################################################################",
"####################################################################################################",
"####################################################################################################",
"####################################################################################################",
"####################################################################################################",
"####################################################################################################",
"####################################################################################################",
"####################################################################################################",
"####################################################################################################",
"####################################################################################################",
"####################################################################################################",
"####################################################################################################",
"####################################################################################################",
"####################################################################################################",
"####################################################################################################",
"####################################################################################################",
"####################################################################################################",
"####################################################################################################",
"####################################################################################################",
"####################################################################################################",
"####################################################################################################",
"####################################################################################################",
"####################################################################################################",
"####################################################################################################",
"####################################################################################################",
"####################################################################################################",
"####################################################################################################",
"####################################################################################################",
"####################################################################################################",
"####################################################################################################",
"####################################################################################################",
"####################################################################################################",
"####################################################################################################",
"####################################################################################################",
"####################################################################################################",
"####################################################################################################",
"####################################################################################################",
"####################################################################################################",
"####################################################################################################",
"####################################################################################################",
"####################################################################################################",
"####################################################################################################",
"####################################################################################################",
"#######################################################.......######################################",
"#######################################################.......######################################",
"#######################################################.......######################################",
"#######################################################.......######################################",
"####################################.......##########..ooooo..######################################",
"####################################.......##########..ooooo..######################################",
"####################################..ooooo..########..ooooo.......#################################",
"####################################..ooooo..########..ooooo.......#################################",
"####################################..ooooo..########..ooooo.......#################################",
"####################################....ooooo.....###..ooo..ooooo  #################################",
"####################################....ooooo.....###..ooo..ooooo  #################################",
"#################################...oooooooXXXXXoo...XXXXXooooooo  #################################",
"#################################...oooooooXXXXXoo...XXXXXooooooo  #################################",
"#################################...oooooooXXXXXoo...XXXXXooooooo  #################################",
"#################################...OOoo...oo...XXXXXXXXXXXX     ###################################",
"#################################...OOoo...oo...XXXXXXXXXXXX     ###################################",
"#################################.......ooooo...  XXX  ooooooo   ###################################",
"#################################.......ooooo...  XXX  ooooooo   ###################################",
"#################################.......ooooo...  XXX  ooooooo   ###################################",
"######################################..OOOoo...  XXX     ooOO   ###################################",
"######################################..OOOoo...  XXX     ooOO   ###################################",
"######################################.......###  XXX..@@@       ###################################",
"######################################.......###  XXX..@@@       ###################################",
"######################################.......###  XXX..@@@       ###################################",
"################################################  XXXXX@@@@@@@XXX###################################",
"################################################  XXXXX@@@@@@@XXX###################################",
"#############################################+++  XXXXX@@@@@OOXXX###################################",
"#############################################+++  XXXXX@@@@@OOXXX###################################",
"#############################################+++  XXXXX@@@@@OOXXX###################################",
"###########################################+++++  XXX  XXXXXXX######################################",
"###########################################+++++  XXX  XXXXXXX######################################",
"###########################################+++++  XXX  +++++########################################",
"###########################################+++++  XXX  +++++########################################",
"###########################################+++++  XXX  +++++########################################",
"###########################################+++++++++++++++++########################################",
"###########################################+++++++++++++++++########################################",
"#############################################+++++++++++++##########################################",
"####################################################################################################",
"####################################################################################################",
"####################################################################################################",
"####################################################################################################",
"####################################################################################################",
"####################################################################################################"
};
