/* XPM */
static char *seed3[] = {
/* columns rows colors chars-per-pixel */
"100 100 8 1 ",
"  c #263B31",
". c #294335",
"X c #32593D",
"o c #37633B",
"O c #42703C",
"+ c #A8794D",
"@ c #BA8656",
"# c None",
/* pixels */
"####################################################################################################",
"####################################################################################################",
"####################################################################################################",
"####################################################################################################",
"####################################################################################################",
"####################################################################################################",
"####################################################################################################",
"####################################################################################################",
"####################################################################################################",
"####################################################################################################",
"####################################################################################################",
"####################################################################################################",
"####################################################################################################",
"####################################################################################################",
"####################################################################################################",
"####################################################################################################",
"####################################################################################################",
"####################################################################################################",
"####################################################################################################",
"####################################################################################################",
"####################################################################################################",
"####################################################################################################",
"####################################################################################################",
"####################################################################################################",
"####################################################################################################",
"####################################################################################################",
"####################################################################################################",
"####################################################################################################",
"####################################################################################################",
"####################################################################################################",
"####################################################################################################",
"####################################################################################################",
"####################################################################################################",
"####################################################################################################",
"####################################################################################################",
"####################################################################################################",
"####################################################################################################",
"####################################################################################################",
"####################################################################################################",
"####################################################################################################",
"####################################################################################################",
"####################################################################################################",
"####################################################################################################",
"####################################################################################################",
"####################################################################################################",
"####################################################################################################",
"####################################################################################################",
"####################################################################################################",
"####################################################################################################",
"####################################################################################################",
"####################################################################################################",
"####################################################################################################",
"####################################################################################################",
"####################################################################################################",
"####################################################################################################",
"####################################################################################################",
"####################################################################################################",
"####################################################################################################",
"####################################################################################################",
"####################################################################################################",
"####################################################################################################",
"#######################################################........#####################################",
"#######################################################........#####################################",
"####################################.......##########..OOOOO...#####################################",
"####################################.......##########..OOOOO...#####################################",
"####################################.......##########..OOOOO...#####################################",
"####################################..OOOoo...#######..oooOO........################################",
"####################################..OOOoo...#######..oooOO........################################",
"####################################.....ooooo.....##..ooo..OOOOO   ################################",
"####################################.....ooooo.....##..ooo..OOOOO   ################################",
"####################################.....ooooo.....##..ooo..OOOOO   ################################",
"#################################...OOoooooXXXXXooo..XXXXXoooooOO   ################################",
"#################################...OOoooooXXXXXooo..XXXXXoooooOO   ################################",
"#################################...OOOOO..ooo..XXXXXXXXXXXX     ###################################",
"#################################...OOOOO..ooo..XXXXXXXXXXXX     ###################################",
"#################################...OOOOO..ooo..XXXXXXXXXXXX     ###################################",
"#################################........OOooo..   XX  oooooOOO  ###################################",
"#################################........OOooo..   XX  oooooOOO  ###################################",
"######################################...OOOOO..   XX     OOOOO  ###################################",
"######################################...OOOOO..   XX     OOOOO  ###################################",
"######################################...OOOOO..   XX     OOOOO  ###################################",
"######################################........##   XX  ###       ###################################",
"######################################........##   XX  ###       ###################################",
"##############################################++   XX  +++##########################################",
"##############################################++   XX  +++##########################################",
"##############################################++   XX  +++##########################################",
"###########################################+++@@   XX  @@@++########################################",
"###########################################+++@@   XX  @@@++########################################",
"###########################################+++@@   XX  @@@++########################################",
"###########################################+++@@   XX  @@@++########################################",
"###########################################+++@@   XX  @@@++########################################",
"###########################################+++++@@@@@@@+++++########################################",
"###########################################+++++@@@@@@@+++++########################################",
"##############################################++++++++++++##########################################",
"####################################################################################################",
"####################################################################################################",
"####################################################################################################",
"####################################################################################################",
"####################################################################################################",
"####################################################################################################"
};
