/* XPM */
static char *seed2[] = {
/* columns rows colors chars-per-pixel */
"100 100 8 1 ",
"  c #263B31",
". c #294335",
"X c #31573D",
"o c #37633B",
"O c #3F6E3B",
"+ c #A8794D",
"@ c #BA8656",
"# c None",
/* pixels */
"####################################################################################################",
"####################################################################################################",
"####################################################################################################",
"####################################################################################################",
"####################################################################################################",
"####################################################################################################",
"####################################################################################################",
"####################################################################################################",
"####################################################################################################",
"####################################################################################################",
"####################################################################################################",
"####################################################################################################",
"####################################################################################################",
"####################################################################################################",
"####################################################################################################",
"####################################################################################################",
"####################################################################################################",
"####################################################################################################",
"####################################################################################################",
"####################################################################################################",
"####################################################################################################",
"####################################################################################################",
"####################################################################################################",
"####################################################################################################",
"####################################################################################################",
"####################################################################################################",
"####################################################################################################",
"####################################################################################################",
"####################################################################################################",
"####################################################################################################",
"####################################################################################################",
"####################################################################################################",
"####################################################################################################",
"####################################################################################################",
"####################################################################################################",
"####################################################################################################",
"####################################################################################################",
"####################################################################################################",
"####################################################################################################",
"####################################################################################################",
"####################################################################################################",
"####################################################################################################",
"####################################################################################################",
"####################################################################################################",
"####################################################################################################",
"####################################################################################################",
"####################################################################################################",
"####################################################################################################",
"####################################################################################################",
"####################################################################################################",
"####################################################################################################",
"####################################################################################################",
"####################################################################################################",
"####################################################################################################",
"####################################################################################################",
"####################################################################################################",
"####################################################################################################",
"####################################################################################################",
"####################################################################################################",
"####################################################################################################",
"####################################################################################################",
"####################################################################################################",
"####################################################################################################",
"####################################################################################################",
"####################################################################################################",
"####################################################################################################",
"#############################################     ###.....##########################################",
"#############################################     ###.....##########################################",
"###########################################  XXXXX...OOOOO..########################################",
"###########################################  XXXXX...OOOOO..########################################",
"###########################################  XXXXX...OOOOO..########################################",
"#########################################    XXXXX...ooOOO.....#####################################",
"#########################################    XXXXX...ooOOO.....#####################################",
"######################################   XXXX...XX...oo...OOOOO..###################################",
"######################################   XXXX...XX...oo...OOOOO..###################################",
"######################################   XXXX...XX...oo...OOOOO..###################################",
"######################################   XXXXXXX..ooooooooooOOO..###################################",
"######################################   XXXXXXX..ooooooooooOOO..###################################",
"#########################################       ..ooo..........#####################################",
"#########################################       ..ooo..........#####################################",
"#########################################       ..ooo..........#####################################",
"###########################################+++++  ooo..@@@++########################################",
"###########################################+++++  ooo..@@@++########################################",
"###########################################++@@@  ooo..@@@++########################################",
"###########################################++@@@  ooo..@@@++########################################",
"###########################################++@@@  ooo..@@@++########################################",
"###########################################+++++@@@@@@@+++++########################################",
"###########################################+++++@@@@@@@+++++########################################",
"#############################################+++++++++++++##########################################",
"#############################################+++++++++++++##########################################",
"#############################################+++++++++++++##########################################",
"####################################################################################################",
"####################################################################################################",
"####################################################################################################",
"####################################################################################################",
"####################################################################################################",
"####################################################################################################",
"####################################################################################################",
"####################################################################################################",
"####################################################################################################"
};
