/* XPM */
static char *seed5[] = {
/* columns rows colors chars-per-pixel */
"100 100 8 1 ",
"  c #75343F",
". c #284134",
"X c #39633C",
"o c #8F3B43",
"O c #B04640",
"+ c #AF7E50",
"@ c #C45740",
"# c None",
/* pixels */
"####################################################################################################",
"####################################################################################################",
"####################################################################################################",
"####################################################################################################",
"####################################################################################################",
"####################################################################################################",
"####################################################################################################",
"####################################################################################################",
"####################################################################################################",
"####################################################################################################",
"####################################################################################################",
"####################################################################################################",
"####################################################################################################",
"####################################################################################################",
"####################################################################################################",
"####################################################################################################",
"####################################################################################################",
"####################################################################################################",
"####################################################################################################",
"####################################################################################################",
"####################################################################################################",
"####################################################################################################",
"####################################################################################################",
"####################################################################################################",
"####################################################################################################",
"####################################################################################################",
"####################################################################################################",
"####################################################################################################",
"####################################################################################################",
"####################################################################################################",
"####################################################################################################",
"####################################################################################################",
"####################################################################################################",
"####################################################################################################",
"####################################################################################################",
"####################################################################################################",
"####################################################################################################",
"####################################################################################################",
"####################################################################################################",
"####################################################################################################",
"####################################################################################################",
"####################################################################################################",
"####################################################################################################",
"####################################################################################################",
"####################################################################################################",
"####################################################################################################",
"####################################################################################################",
"####################################################################################################",
"####################################################################################################",
"####################################################################################################",
"####################################################################################################",
"####################################################################################################",
"####################################################################################################",
"####################################################################################################",
"####################################################################################################",
"####################################################################################################",
"####################################################################################################",
"#######################################################.......######################################",
"#######################################################.......######################################",
"#######################################################.......######################################",
"#######################################################.......######################################",
"###################################........#########...XXXXX..######################################",
"###################################........#########...XXXXX..######################################",
"###################################...XXXXX..#######...XXXXX.......#################################",
"###################################...XXXXX..#######...XXXXX.......#################################",
"###################################...XXXXX..#######...XXXXX.......#################################",
"###################################.....XXXXX.....##...XX...XXXXX..#################################",
"###################################.....XXXXX.....##...XX...XXXXX..#################################",
"#################################..XXXXXXXXXXXXXXX..XXXXXXXXXX.....#################################",
"#################################..XXXXXXXXXXXXXXX..XXXXXXXXXX.....#################################",
"#################################..XXXXXXXXXXXXXXX..XXXXXXXXXX.....#################################",
"#################################..XXXXX...XX...XXXX.....XXX.....XX...##############################",
"#################################..XXXXX...XX...XXXX.....XXX.....XX...##############################",
"#################################.......XXXXX.......XXXXX.....XXXXX...##############################",
"#################################.......XXXXX.......XXXXX.....XXXXX...##############################",
"#################################.......XXXXX.......XXXXX.....XXXXX...##############################",
"######################################..XXXXX.....XX...XXXXX.......#################################",
"######################################..XXXXX.....XX...XXXXX.......#################################",
"######################################.......###..XXooo.......XXXXX...##############################",
"######################################.......###..XXooo.......XXXXX...##############################",
"######################################.......###..XXooo.......XXXXX...##############################",
"################################################..ooOOO@@@@@OO...XX...  ############################",
"################################################..ooOOO@@@@@OO...XX...  ############################",
"#############################################+++..oo@@@@@@@@@@OOO..ooo  ############################",
"#############################################+++..oo@@@@@@@@@@OOO..ooo  ############################",
"#############################################+++..oo@@@@@@@@@@OOO..ooo  ############################",
"###########################################+++++..oo@@@@@@@@@@OOOOOooo  ############################",
"###########################################+++++..oo@@@@@@@@@@OOOOOooo  ############################",
"###########################################+++++..ooOOO@@@@@OOOOOOOooo  ############################",
"###########################################+++++..ooOOO@@@@@OOOOOOOooo  ############################",
"###########################################+++++..ooOOO@@@@@OOOOOOOooo  ############################",
"###########################################+++++++++oooOOOOOOOOOOoo   ##############################",
"###########################################+++++++++oooOOOOOOOOOOoo   ##############################",
"#############################################++++++++++            #################################",
"####################################################################################################",
"####################################################################################################",
"####################################################################################################",
"####################################################################################################",
"####################################################################################################",
"####################################################################################################"
};
