/* XPM */
static char *result[] = {
/* columns rows colors chars-per-pixel */
"100 100 8 1 ",
"  c #573C39",
". c #633B41",
"X c #704C44",
"o c #AC635D",
"O c #CF9051",
"+ c #CBAE93",
"@ c #D9C4A5",
"# c None",
/* pixels */
"####################################################################################################",
"####################################################################################################",
"####################################################################################################",
"####################################################################################################",
"####################################################################################################",
"####################################################################################################",
"####################################################################################################",
"####################################################################################################",
"####################################################################################################",
"####################################################################################################",
"####################################################################################################",
"####################################################################################################",
"####################################################################################################",
"####################################################################################################",
"####################################################################################################",
"####################################################################################################",
"####################################################################################################",
"####################################################################################################",
"####################################################################################################",
"####################################################################################################",
"####################################################################################################",
"####################################################################################################",
"####################################################################################################",
"####################################################################################################",
"####################################################################################################",
"####################################################################################################",
"####################################################################################################",
"####################################################################################################",
"####################################################################################################",
"####################################################################################################",
"####################################################################################################",
"####################################################################################################",
"####################################################################################################",
"####################################################################################################",
"####################################################################################################",
"####################################################################################################",
"####################################################################################################",
"####################################################################################################",
"####################################################################################################",
"####################################################################################################",
"####################################################################################################",
"####################################################################################################",
"####################################################################################################",
"####################################################################################################",
"####################################################################################################",
"####################################################################################################",
"####################################################################################################",
"####################################################################################################",
"####################################################################################################",
"####################################################################################################",
"####################################################################################################",
"####################################################################################################",
"####################################################################################################",
"####################################################################################################",
"####################################################################################################",
"####################################################################################################",
"####################################################################################################",
"####################################################################################################",
"############################################...###...###############################################",
"############################################...###...###############################################",
"############################################...###...###############################################",
"############################################...###...###############################################",
"#########################################...ooo...ooo...############################################",
"#########################################...ooo...ooo...############################################",
"#########################################...ooo...ooo...############################################",
"#########################################XXXXXXoooooo...############################################",
"#########################################XXXXXXoooooo...############################################",
"#########################################XXXXXXoooooo...############################################",
"######################################XXX++++++@@@ooo...XXX#########################################",
"######################################XXX++++++@@@ooo...XXX#########################################",
"######################################XXX++++++@@@ooo...XXX#########################################",
"######################################XXX+++@@@@@@@@@@@@@@@XXX######################################",
"######################################XXX+++@@@@@@@@@@@@@@@XXX######################################",
"######################################XXX+++@@@@@@@@@@@@@@@XXX######################################",
"###################################XXX@@@@@@@@@@@@   @@@@@@   XXX###################################",
"###################################XXX@@@@@@@@@@@@   @@@@@@   XXX###################################",
"###################################XXX@@@@@@@@@@@@   @@@@@@   XXX###################################",
"###############################XXXX+++@@@ooo@@@@@@@@@@@@OOO@@@+++XXX################################",
"###############################XXXX+++@@@ooo@@@@@@@@@@@@OOO@@@+++XXX################################",
"###############################XXXX+++@@@ooo@@@@@@@@@@@@OOO@@@+++XXX################################",
"###############################XXXX++++++ooo@@@@@@@@@@@@ooo@@@+++XXX################################",
"###############################XXXX++++++ooo@@@@@@@@@@@@ooo@@@+++XXX################################",
"###############################XXXX++++++ooo@@@@@@@@@@@@ooo@@@+++XXX################################",
"###################################XXXXXX+++@@@@@@@@@@@@@@@@@@XXX###################################",
"###################################XXXXXX+++@@@@@@@@@@@@@@@@@@XXX###################################",
"###################################XXXXXX+++@@@@@@@@@@@@@@@@@@XXX###################################",
"######################################   ++++++@@@@@@@@@++++++XXX###################################",
"######################################   ++++++@@@@@@@@@++++++XXX###################################",
"######################################   ++++++@@@@@@@@@++++++XXX###################################",
"######################################   +++XXXXXX++++++XXXXXX######################################",
"######################################   +++XXXXXX++++++XXXXXX######################################",
"######################################   +++XXXXXX++++++XXXXXX######################################",
"#########################################      OOO         #########################################",
"#########################################      OOO         #########################################",
"#########################################      OOO         #########################################",
"####################################################################################################",
"####################################################################################################",
"####################################################################################################",
"####################################################################################################",
"####################################################################################################"
};
