/* XPM */
static char *b85eaadbe15d4796983174643e714bb4byaZoKeHTncdlMWo[] = {
/* columns rows colors chars-per-pixel */
"100 100 8 1 ",
"  c None",
". c #421011",
"X c #60291D",
"o c #955A3D",
"O c #C84745",
"+ c #E78533",
"@ c #EABD95",
"# c #FFDFB0",
/* pixels */
"                                                                                                    ",
"                                                                                                    ",
"                                                                                                    ",
"                                                                                                    ",
"                                                                                                    ",
"                                                                                                    ",
"                                                                                                    ",
"                                                                                                    ",
"                                                                                                    ",
"                                                                                                    ",
"                                                                                                    ",
"                                                                                                    ",
"                                                                                                    ",
"                                                                                                    ",
"                                                                                                    ",
"                                                                                                    ",
"                                                                                                    ",
"                                                                                                    ",
"                                                                                                    ",
"                                                                                                    ",
"                                                                                                    ",
"                                                                                                    ",
"                                                                                                    ",
"                                                                                                    ",
"                                                                                                    ",
"                                                                                                    ",
"                                                                                                    ",
"                                                                                                    ",
"                                                                                                    ",
"                                                                                                    ",
"                                                                                                    ",
"                                                                                                    ",
"                                                                                                    ",
"                                        .....      .....                                            ",
"                                        .....      .....                                            ",
"                                        .....      .....                                            ",
"                                        .....      .....                                            ",
"                                        .....      .....                                            ",
"                                   .....OOOOO......OOOOO.....                                       ",
"                                   .....OOOOO......OOOOO.....                                       ",
"                                   .....OOOOO......OOOOO.....                                       ",
"                                   .....OOOOO......OOOOO.....                                       ",
"                                   .....OOOOO......OOOOO.....                                       ",
"                                   XXXXXXXXXXOOOOOOOOOOO.....                                       ",
"                                   XXXXXXXXXXOOOOOOOOOOO.....                                       ",
"                                   XXXXXXXXXXOOOOOOOOOOO.....                                       ",
"                                   XXXXXXXXXXOOOOOOOOOOO.....                                       ",
"                                   XXXXXXXXXXOOOOOOOOOOO.....                                       ",
"                              XXXXX@@@@@@@@@@######OOOOO.....XXXXX                                  ",
"                              XXXXX@@@@@@@@@@######OOOOO.....XXXXX                                  ",
"                              XXXXX@@@@@@@@@@######OOOOO.....XXXXX                                  ",
"                              XXXXX@@@@@@@@@@######OOOOO.....XXXXX                                  ",
"                              XXXXX@@@@@@@@@@######OOOOO.....XXXXX                                  ",
"                              XXXXX@@@@@##########################XXXXX                             ",
"                              XXXXX@@@@@##########################XXXXX                             ",
"                              XXXXX@@@@@##########################XXXXX                             ",
"                              XXXXX@@@@@##########################XXXXX                             ",
"                              XXXXX@@@@@##########################XXXXX                             ",
"                         XXXXX@@@@@################.....##########.....                             ",
"                         XXXXX@@@@@################.....##########.....                             ",
"                         XXXXX@@@@@################.....##########.....                             ",
"                         XXXXX@@@@@################.....##########.....                             ",
"                         XXXXX@@@@@################.....##########.....                             ",
"                         XXXXX@@@@@################.....##########.....                             ",
"                         XXXXX###############################+++++#####XXXXX                        ",
"                         XXXXX###############################+++++#####XXXXX                        ",
"                         XXXXX###############################+++++#####XXXXX                        ",
"                         XXXXX###############################+++++#####XXXXX                        ",
"                         XXXXX###############################+++++#####XXXXX                        ",
"                    XXXXX@@@@@#####ooooo#####################OOOOO#####@@@@@XXXXX                   ",
"                    XXXXX@@@@@#####ooooo#####################OOOOO#####@@@@@XXXXX                   ",
"                    XXXXX@@@@@#####ooooo#####################OOOOO#####@@@@@XXXXX                   ",
"                    XXXXX@@@@@#####ooooo#####################OOOOO#####@@@@@XXXXX                   ",
"                    XXXXX@@@@@#####ooooo#####################OOOOO#####@@@@@XXXXX                   ",
"                    XXXXX@@@@@@@@@@ooooo###############################@@@@@XXXXX                   ",
"                    XXXXX@@@@@@@@@@ooooo###############################@@@@@XXXXX                   ",
"                    XXXXX@@@@@@@@@@ooooo###############################@@@@@XXXXX                   ",
"                    XXXXX@@@@@@@@@@ooooo###############################@@@@@XXXXX                   ",
"                    XXXXX@@@@@@@@@@ooooo###############################@@@@@XXXXX                   ",
"                         XXXXXXXXXX@@@@@@@@@@#####################@@@@@XXXXX                        ",
"                         XXXXXXXXXX@@@@@@@@@@#####################@@@@@XXXXX                        ",
"                         XXXXXXXXXX@@@@@@@@@@#####################@@@@@XXXXX                        ",
"                         XXXXXXXXXX@@@@@@@@@@#####################@@@@@XXXXX                        ",
"                         XXXXXXXXXX@@@@@@@@@@#####################@@@@@XXXXX                        ",
"                         .....@@@@@@@@@@@@@@@@@@@@@@@@@@@@@@@@@@@@XXXXX                             ",
"                         .....@@@@@@@@@@@@@@@@@@@@@@@@@@@@@@@@@@@@XXXXX                             ",
"                         .....@@@@@@@@@@@@@@@@@@@@@@@@@@@@@@@@@@@@XXXXX                             ",
"                         .....@@@@@@@@@@@@@@@@@@@@@@@@@@@@@@@@@@@@XXXXX                             ",
"                         .....@@@@@@@@@@@@@@@@@@@@@@@@@@@@@@@@@@@@XXXXX                             ",
"                              .....+++++................+++++.....                                  ",
"                              .....+++++................+++++.....                                  ",
"                              .....+++++................+++++.....                                  ",
"                              .....+++++................+++++.....                                  ",
"                              .....+++++................+++++.....                                  ",
"                                                                                                    ",
"                                                                                                    ",
"                                                                                                    ",
"                                                                                                    ",
"                                                                                                    ",
"                                                                                                    "
};
