/* XPM */
static char *_712b960050143d484854983239ec861uTwLchnMKXPoPwgM[] = {
/* columns rows colors chars-per-pixel */
"100 100 8 1 ",
"  c None",
". c #431011",
"X c #60291D",
"o c #955A3D",
"O c #C84745",
"+ c #E68433",
"@ c #EABD95",
"# c #FFDFB0",
/* pixels */
"                                                                                                    ",
"                                                                                                    ",
"                                                                                                    ",
"                                                                                                    ",
"                                                                                                    ",
"                                                                                                    ",
"                                                                                                    ",
"                                                                                                    ",
"                                                                                                    ",
"                                                                                                    ",
"                                                                                                    ",
"                                                                                                    ",
"                                                                                                    ",
"                                                                                                    ",
"                                                                                                    ",
"                                                                                                    ",
"                                                                                                    ",
"                                                                                                    ",
"                                                                                                    ",
"                                                                                                    ",
"                                                                                                    ",
"                                                                                                    ",
"                                                                                                    ",
"                                                                                                    ",
"                                                                                                    ",
"                                                                                                    ",
"                                                                                                    ",
"                                                                                                    ",
"                                                                                                    ",
"                                                                                                    ",
"                                                                                                    ",
"                                                                                                    ",
"                                                                                                    ",
"                                        .....     .....                                             ",
"                                        .....     .....                                             ",
"                                        .....     .....                                             ",
"                                        .....     .....                                             ",
"                                        .....     .....                                             ",
"                                   .....OOOOO.....OOOOO......                                       ",
"                                   .....OOOOO.....OOOOO......                                       ",
"                                   .....OOOOO.....OOOOO......                                       ",
"                                   .....OOOOO.....OOOOO......                                       ",
"                                   .....OOOOO.....OOOOO......                                       ",
"                                   XXXXXXXXXXOOOOOOOOOO......                                       ",
"                                   XXXXXXXXXXOOOOOOOOOO......                                       ",
"                                   XXXXXXXXXXOOOOOOOOOO......                                       ",
"                                   XXXXXXXXXXOOOOOOOOOO......                                       ",
"                                   XXXXXXXXXXOOOOOOOOOO......                                       ",
"                              XXXXX@@@@@@@@@@#####OOOOO......XXXXX                                  ",
"                              XXXXX@@@@@@@@@@#####OOOOO......XXXXX                                  ",
"                              XXXXX@@@@@@@@@@#####OOOOO......XXXXX                                  ",
"                              XXXXX@@@@@@@@@@#####OOOOO......XXXXX                                  ",
"                              XXXXX@@@@@@@@@@#####OOOOO......XXXXX                                  ",
"                              XXXXX@@@@@##########################XXXXX                             ",
"                              XXXXX@@@@@##########################XXXXX                             ",
"                              XXXXX@@@@@##########################XXXXX                             ",
"                              XXXXX@@@@@##########################XXXXX                             ",
"                              XXXXX@@@@@##########################XXXXX                             ",
"                         XXXXX@@@@@###############.....###########.....                             ",
"                         XXXXX@@@@@###############.....###########.....                             ",
"                         XXXXX@@@@@###############.....###########.....                             ",
"                         XXXXX@@@@@###############.....###########.....                             ",
"                         XXXXX@@@@@###############.....###########.....                             ",
"                         XXXXX@@@@@###############.....###########.....                             ",
"                         XXXXX###############################+++++#####XXXXX                        ",
"                         XXXXX###############################+++++#####XXXXX                        ",
"                         XXXXX###############################+++++#####XXXXX                        ",
"                         XXXXX###############################+++++#####XXXXX                        ",
"                         XXXXX###############################+++++#####XXXXX                        ",
"                   XXXXXX@@@@@#####ooooo#####################OOOOO#####@@@@@XXXXX                   ",
"                   XXXXXX@@@@@#####ooooo#####################OOOOO#####@@@@@XXXXX                   ",
"                   XXXXXX@@@@@#####ooooo#####################OOOOO#####@@@@@XXXXX                   ",
"                   XXXXXX@@@@@#####ooooo#####################OOOOO#####@@@@@XXXXX                   ",
"                   XXXXXX@@@@@#####ooooo#####################OOOOO#####@@@@@XXXXX                   ",
"                   XXXXXX@@@@@@@@@@ooooo###############################@@@@@XXXXX                   ",
"                   XXXXXX@@@@@@@@@@ooooo###############################@@@@@XXXXX                   ",
"                   XXXXXX@@@@@@@@@@ooooo###############################@@@@@XXXXX                   ",
"                   XXXXXX@@@@@@@@@@ooooo###############################@@@@@XXXXX                   ",
"                   XXXXXX@@@@@@@@@@ooooo###############################@@@@@XXXXX                   ",
"                         XXXXXXXXXX@@@@@@@@@@#####################@@@@@XXXXX                        ",
"                         XXXXXXXXXX@@@@@@@@@@#####################@@@@@XXXXX                        ",
"                         XXXXXXXXXX@@@@@@@@@@#####################@@@@@XXXXX                        ",
"                         XXXXXXXXXX@@@@@@@@@@#####################@@@@@XXXXX                        ",
"                         XXXXXXXXXX@@@@@@@@@@#####################@@@@@XXXXX                        ",
"                         .....@@@@@@@@@@@@@@@@@@@@@@@@@@@@@@@@@@@@XXXXX                             ",
"                         .....@@@@@@@@@@@@@@@@@@@@@@@@@@@@@@@@@@@@XXXXX                             ",
"                         .....@@@@@@@@@@@@@@@@@@@@@@@@@@@@@@@@@@@@XXXXX                             ",
"                         .....@@@@@@@@@@@@@@@@@@@@@@@@@@@@@@@@@@@@XXXXX                             ",
"                         .....@@@@@@@@@@@@@@@@@@@@@@@@@@@@@@@@@@@@XXXXX                             ",
"                              .....+++++...............++++++.....                                  ",
"                              .....+++++...............++++++.....                                  ",
"                              .....+++++...............++++++.....                                  ",
"                              .....+++++...............++++++.....                                  ",
"                              .....+++++...............++++++.....                                  ",
"                                                                                                    ",
"                                                                                                    ",
"                                                                                                    ",
"                                                                                                    ",
"                                                                                                    ",
"                                                                                                    "
};
