/* XPM */
static char *f96befdbe3114f20ae6dcfc54d887b37Pg39zkfll960myaZ[] = {
/* columns rows colors chars-per-pixel */
"100 100 8 1 ",
"  c None",
". c #421011",
"X c #60291D",
"o c #955A3D",
"O c #C84745",
"+ c #E78533",
"@ c #EABD95",
"# c #FFDFB0",
/* pixels */
"                                                                                                    ",
"                                                                                                    ",
"                                                                                                    ",
"                                                                                                    ",
"                                                                                                    ",
"                                                                                                    ",
"                                                                                                    ",
"                                                                                                    ",
"                                                                                                    ",
"                                                                                                    ",
"                                                                                                    ",
"                                                                                                    ",
"                                                                                                    ",
"                                                                                                    ",
"                                                                                                    ",
"                                                                                                    ",
"                                                                                                    ",
"                                                                                                    ",
"                                                                                                    ",
"                                                                                                    ",
"                                                                                                    ",
"                                                                                                    ",
"                                                                                                    ",
"                                                                                                    ",
"                                                                                                    ",
"                                                                                                    ",
"                                                                                                    ",
"                                                                                                    ",
"                                                                                                    ",
"                                                                                                    ",
"                                                                                                    ",
"                                                                                                    ",
"                                                                                                    ",
"                                             .....      .....                                       ",
"                                             .....      .....                                       ",
"                                             .....      .....                                       ",
"                                             .....      .....                                       ",
"                                             .....      .....                                       ",
"                                        .....OOOOO......OOOOO.....                                  ",
"                                        .....OOOOO......OOOOO.....                                  ",
"                                        .....OOOOO......OOOOO.....                                  ",
"                                        .....OOOOO......OOOOO.....                                  ",
"                                        .....OOOOO......OOOOO.....                                  ",
"                                        .....OOOOOOOOOOOXXXXXXXXXX                                  ",
"                                        .....OOOOOOOOOOOXXXXXXXXXX                                  ",
"                                        .....OOOOOOOOOOOXXXXXXXXXX                                  ",
"                                        .....OOOOOOOOOOOXXXXXXXXXX                                  ",
"                                        .....OOOOOOOOOOOXXXXXXXXXX                                  ",
"                                   XXXXX.....OOOOO######@@@@@@@@@@XXXXX                             ",
"                                   XXXXX.....OOOOO######@@@@@@@@@@XXXXX                             ",
"                                   XXXXX.....OOOOO######@@@@@@@@@@XXXXX                             ",
"                                   XXXXX.....OOOOO######@@@@@@@@@@XXXXX                             ",
"                                   XXXXX.....OOOOO######@@@@@@@@@@XXXXX                             ",
"                              XXXXX##########################@@@@@XXXXX                             ",
"                              XXXXX##########################@@@@@XXXXX                             ",
"                              XXXXX##########################@@@@@XXXXX                             ",
"                              XXXXX##########################@@@@@XXXXX                             ",
"                              XXXXX##########################@@@@@XXXXX                             ",
"                              .....##########.....################@@@@@XXXXX                        ",
"                              .....##########.....################@@@@@XXXXX                        ",
"                              .....##########.....################@@@@@XXXXX                        ",
"                              .....##########.....################@@@@@XXXXX                        ",
"                              .....##########.....################@@@@@XXXXX                        ",
"                              .....##########.....################@@@@@XXXXX                        ",
"                         XXXXX#####+++++###############################XXXXX                        ",
"                         XXXXX#####+++++###############################XXXXX                        ",
"                         XXXXX#####+++++###############################XXXXX                        ",
"                         XXXXX#####+++++###############################XXXXX                        ",
"                         XXXXX#####+++++###############################XXXXX                        ",
"                    XXXXX@@@@@#####OOOOO#####################ooooo#####@@@@@XXXXX                   ",
"                    XXXXX@@@@@#####OOOOO#####################ooooo#####@@@@@XXXXX                   ",
"                    XXXXX@@@@@#####OOOOO#####################ooooo#####@@@@@XXXXX                   ",
"                    XXXXX@@@@@#####OOOOO#####################ooooo#####@@@@@XXXXX                   ",
"                    XXXXX@@@@@#####OOOOO#####################ooooo#####@@@@@XXXXX                   ",
"                    XXXXX@@@@@###############################ooooo@@@@@@@@@@XXXXX                   ",
"                    XXXXX@@@@@###############################ooooo@@@@@@@@@@XXXXX                   ",
"                    XXXXX@@@@@###############################ooooo@@@@@@@@@@XXXXX                   ",
"                    XXXXX@@@@@###############################ooooo@@@@@@@@@@XXXXX                   ",
"                    XXXXX@@@@@###############################ooooo@@@@@@@@@@XXXXX                   ",
"                         XXXXX@@@@@#####################@@@@@@@@@@XXXXXXXXXX                        ",
"                         XXXXX@@@@@#####################@@@@@@@@@@XXXXXXXXXX                        ",
"                         XXXXX@@@@@#####################@@@@@@@@@@XXXXXXXXXX                        ",
"                         XXXXX@@@@@#####################@@@@@@@@@@XXXXXXXXXX                        ",
"                         XXXXX@@@@@#####################@@@@@@@@@@XXXXXXXXXX                        ",
"                              XXXXX@@@@@@@@@@@@@@@@@@@@@@@@@@@@@@@@@@@@.....                        ",
"                              XXXXX@@@@@@@@@@@@@@@@@@@@@@@@@@@@@@@@@@@@.....                        ",
"                              XXXXX@@@@@@@@@@@@@@@@@@@@@@@@@@@@@@@@@@@@.....                        ",
"                              XXXXX@@@@@@@@@@@@@@@@@@@@@@@@@@@@@@@@@@@@.....                        ",
"                              XXXXX@@@@@@@@@@@@@@@@@@@@@@@@@@@@@@@@@@@@.....                        ",
"                                   .....+++++................+++++.....                             ",
"                                   .....+++++................+++++.....                             ",
"                                   .....+++++................+++++.....                             ",
"                                   .....+++++................+++++.....                             ",
"                                   .....+++++................+++++.....                             ",
"                                                                                                    ",
"                                                                                                    ",
"                                                                                                    ",
"                                                                                                    ",
"                                                                                                    ",
"                                                                                                    "
};
