/* XPM */
static char *_ff32969b18b4f1eb24ea969fc5ddef2EQTe0TxDhN5MtcwM[] = {
/* columns rows colors chars-per-pixel */
"100 100 8 1 ",
"  c None",
". c #421011",
"X c #60291D",
"o c #955A3D",
"O c #C84845",
"+ c #E88633",
"@ c #EABD95",
"# c #FFDFB0",
/* pixels */
"                                                                                                    ",
"                                                                                                    ",
"                                                                                                    ",
"                                                                                                    ",
"                                                                                                    ",
"                                                                                                    ",
"                                                                                                    ",
"                                                                                                    ",
"                                                                                                    ",
"                                                                                                    ",
"                                                                                                    ",
"                                                                                                    ",
"                                                                                                    ",
"                                                                                                    ",
"                                                                                                    ",
"                                                                                                    ",
"                                                                                                    ",
"                                                                                                    ",
"                                                                                                    ",
"                                                                                                    ",
"                                                                                                    ",
"                                                                                                    ",
"                                                                                                    ",
"                                                                                                    ",
"                                                                                                    ",
"                                                                                                    ",
"                                                                                                    ",
"                                             ......     .....                                       ",
"                                             ......     .....                                       ",
"                                             ......     .....                                       ",
"                                             ......     .....                                       ",
"                                             ......     .....                                       ",
"                                             ......     .....                                       ",
"                                        .....OOOOOO.....OOOOO.....                                  ",
"                                        .....OOOOOO.....OOOOO.....                                  ",
"                                        .....OOOOOO.....OOOOO.....                                  ",
"                                        .....OOOOOO.....OOOOO.....                                  ",
"                                        .....OOOOOO.....OOOOO.....                                  ",
"                                        .....OOOOOOOOOOOXXXXXXXXXX                                  ",
"                                        .....OOOOOOOOOOOXXXXXXXXXX                                  ",
"                                        .....OOOOOOOOOOOXXXXXXXXXX                                  ",
"                                        .....OOOOOOOOOOOXXXXXXXXXX                                  ",
"                                        .....OOOOOOOOOOOXXXXXXXXXX                                  ",
"                                   XXXXX.....OOOOOO#####@@@@@@@@@@XXXXX                             ",
"                                   XXXXX.....OOOOOO#####@@@@@@@@@@XXXXX                             ",
"                                   XXXXX.....OOOOOO#####@@@@@@@@@@XXXXX                             ",
"                                   XXXXX.....OOOOOO#####@@@@@@@@@@XXXXX                             ",
"                                   XXXXX.....OOOOOO#####@@@@@@@@@@XXXXX                             ",
"                              XXXXX##########################@@@@@XXXXX                             ",
"                              XXXXX##########################@@@@@XXXXX                             ",
"                              XXXXX##########################@@@@@XXXXX                             ",
"                              XXXXX##########################@@@@@XXXXX                             ",
"                              XXXXX##########################@@@@@XXXXX                             ",
"                         XXXXX.....##########......####################XXXXX                        ",
"                         XXXXX.....##########......####################XXXXX                        ",
"                         XXXXX.....##########......####################XXXXX                        ",
"                         XXXXX.....##########......####################XXXXX                        ",
"                         XXXXX.....##########......####################XXXXX                        ",
"                    XXXXX@@@@@#####+++++#####################ooooo#####@@@@@XXXXX                   ",
"                    XXXXX@@@@@#####+++++#####################ooooo#####@@@@@XXXXX                   ",
"                    XXXXX@@@@@#####+++++#####################ooooo#####@@@@@XXXXX                   ",
"                    XXXXX@@@@@#####+++++#####################ooooo#####@@@@@XXXXX                   ",
"                    XXXXX@@@@@#####+++++#####################ooooo#####@@@@@XXXXX                   ",
"                    XXXXX@@@@@#####+++++#####################ooooo#####@@@@@XXXXX                   ",
"                    XXXXX@@@@@#####OOOOO#####################ooooo@@@@@@@@@@XXXXX                   ",
"                    XXXXX@@@@@#####OOOOO#####################ooooo@@@@@@@@@@XXXXX                   ",
"                    XXXXX@@@@@#####OOOOO#####################ooooo@@@@@@@@@@XXXXX                   ",
"                    XXXXX@@@@@#####OOOOO#####################ooooo@@@@@@@@@@XXXXX                   ",
"                    XXXXX@@@@@#####OOOOO#####################ooooo@@@@@@@@@@XXXXX                   ",
"                         XXXXX###############################@@@@@XXXXXXXXXX                        ",
"                         XXXXX###############################@@@@@XXXXXXXXXX                        ",
"                         XXXXX###############################@@@@@XXXXXXXXXX                        ",
"                         XXXXX###############################@@@@@XXXXXXXXXX                        ",
"                         XXXXX###############################@@@@@XXXXXXXXXX                        ",
"                         XXXXX@@@@@@@@@@################@@@@@@@@@@@@@@@.....                        ",
"                         XXXXX@@@@@@@@@@################@@@@@@@@@@@@@@@.....                        ",
"                         XXXXX@@@@@@@@@@################@@@@@@@@@@@@@@@.....                        ",
"                         XXXXX@@@@@@@@@@################@@@@@@@@@@@@@@@.....                        ",
"                         XXXXX@@@@@@@@@@################@@@@@@@@@@@@@@@.....                        ",
"                              XXXXXXXXXX@@@@@@@@@@@@@@@@..........+++++.....                        ",
"                              XXXXXXXXXX@@@@@@@@@@@@@@@@..........+++++.....                        ",
"                              XXXXXXXXXX@@@@@@@@@@@@@@@@..........+++++.....                        ",
"                              XXXXXXXXXX@@@@@@@@@@@@@@@@..........+++++.....                        ",
"                              XXXXXXXXXX@@@@@@@@@@@@@@@@..........+++++.....                        ",
"                              .....+++++................                                            ",
"                              .....+++++................                                            ",
"                              .....+++++................                                            ",
"                              .....+++++................                                            ",
"                              .....+++++................                                            ",
"                                                                                                    ",
"                                                                                                    ",
"                                                                                                    ",
"                                                                                                    ",
"                                                                                                    ",
"                                                                                                    ",
"                                                                                                    ",
"                                                                                                    ",
"                                                                                                    ",
"                                                                                                    ",
"                                                                                                    "
};
