/* XPM */
static char *_a73f5ac96464a9dafd319aa7cdf51adk6SfMCyGqkmfkGVa[] = {
/* columns rows colors chars-per-pixel */
"100 100 8 1 ",
"  c None",
". c #431011",
"X c #60291D",
"o c #955A3D",
"O c #C84745",
"+ c #E68433",
"@ c #EABD95",
"# c #FFDFB0",
/* pixels */
"                                                                                                    ",
"                                                                                                    ",
"                                                                                                    ",
"                                                                                                    ",
"                                                                                                    ",
"                                                                                                    ",
"                                                                                                    ",
"                                                                                                    ",
"                                                                                                    ",
"                                                                                                    ",
"                                                                                                    ",
"                                                                                                    ",
"                                                                                                    ",
"                                                                                                    ",
"                                                                                                    ",
"                                                                                                    ",
"                                                                                                    ",
"                                                                                                    ",
"                                                                                                    ",
"                                                                                                    ",
"                                                                                                    ",
"                                                                                                    ",
"                                                                                                    ",
"                                                                                                    ",
"                                                                                                    ",
"                                                                                                    ",
"                                                                                                    ",
"                                                                                                    ",
"                                                                                                    ",
"                                                                                                    ",
"                                                                                                    ",
"                                                                                                    ",
"                                                                                                    ",
"                                             .....     .....                                        ",
"                                             .....     .....                                        ",
"                                             .....     .....                                        ",
"                                             .....     .....                                        ",
"                                             .....     .....                                        ",
"                                       ......OOOOO.....OOOOO.....                                   ",
"                                       ......OOOOO.....OOOOO.....                                   ",
"                                       ......OOOOO.....OOOOO.....                                   ",
"                                       ......OOOOO.....OOOOO.....                                   ",
"                                       ......OOOOO.....OOOOO.....                                   ",
"                                       ......OOOOOOOOOOXXXXXXXXXX                                   ",
"                                       ......OOOOOOOOOOXXXXXXXXXX                                   ",
"                                       ......OOOOOOOOOOXXXXXXXXXX                                   ",
"                                       ......OOOOOOOOOOXXXXXXXXXX                                   ",
"                                       ......OOOOOOOOOOXXXXXXXXXX                                   ",
"                                  XXXXX......OOOOO#####@@@@@@@@@@XXXXX                              ",
"                                  XXXXX......OOOOO#####@@@@@@@@@@XXXXX                              ",
"                                  XXXXX......OOOOO#####@@@@@@@@@@XXXXX                              ",
"                                  XXXXX......OOOOO#####@@@@@@@@@@XXXXX                              ",
"                                  XXXXX......OOOOO#####@@@@@@@@@@XXXXX                              ",
"                             XXXXX##########################@@@@@XXXXX                              ",
"                             XXXXX##########################@@@@@XXXXX                              ",
"                             XXXXX##########################@@@@@XXXXX                              ",
"                             XXXXX##########################@@@@@XXXXX                              ",
"                             XXXXX##########################@@@@@XXXXX                              ",
"                             .....###########.....###############@@@@@XXXXX                         ",
"                             .....###########.....###############@@@@@XXXXX                         ",
"                             .....###########.....###############@@@@@XXXXX                         ",
"                             .....###########.....###############@@@@@XXXXX                         ",
"                             .....###########.....###############@@@@@XXXXX                         ",
"                             .....###########.....###############@@@@@XXXXX                         ",
"                        XXXXX#####+++++###############################XXXXX                         ",
"                        XXXXX#####+++++###############################XXXXX                         ",
"                        XXXXX#####+++++###############################XXXXX                         ",
"                        XXXXX#####+++++###############################XXXXX                         ",
"                        XXXXX#####+++++###############################XXXXX                         ",
"                   XXXXX@@@@@#####OOOOO#####################ooooo#####@@@@@XXXXXX                   ",
"                   XXXXX@@@@@#####OOOOO#####################ooooo#####@@@@@XXXXXX                   ",
"                   XXXXX@@@@@#####OOOOO#####################ooooo#####@@@@@XXXXXX                   ",
"                   XXXXX@@@@@#####OOOOO#####################ooooo#####@@@@@XXXXXX                   ",
"                   XXXXX@@@@@#####OOOOO#####################ooooo#####@@@@@XXXXXX                   ",
"                   XXXXX@@@@@###############################ooooo@@@@@@@@@@XXXXXX                   ",
"                   XXXXX@@@@@###############################ooooo@@@@@@@@@@XXXXXX                   ",
"                   XXXXX@@@@@###############################ooooo@@@@@@@@@@XXXXXX                   ",
"                   XXXXX@@@@@###############################ooooo@@@@@@@@@@XXXXXX                   ",
"                   XXXXX@@@@@###############################ooooo@@@@@@@@@@XXXXXX                   ",
"                        XXXXX@@@@@#####################@@@@@@@@@@XXXXXXXXXX                         ",
"                        XXXXX@@@@@#####################@@@@@@@@@@XXXXXXXXXX                         ",
"                        XXXXX@@@@@#####################@@@@@@@@@@XXXXXXXXXX                         ",
"                        XXXXX@@@@@#####################@@@@@@@@@@XXXXXXXXXX                         ",
"                        XXXXX@@@@@#####################@@@@@@@@@@XXXXXXXXXX                         ",
"                             XXXXX@@@@@@@@@@@@@@@@@@@@@@@@@@@@@@@@@@@@.....                         ",
"                             XXXXX@@@@@@@@@@@@@@@@@@@@@@@@@@@@@@@@@@@@.....                         ",
"                             XXXXX@@@@@@@@@@@@@@@@@@@@@@@@@@@@@@@@@@@@.....                         ",
"                             XXXXX@@@@@@@@@@@@@@@@@@@@@@@@@@@@@@@@@@@@.....                         ",
"                             XXXXX@@@@@@@@@@@@@@@@@@@@@@@@@@@@@@@@@@@@.....                         ",
"                                  .....++++++...............+++++.....                              ",
"                                  .....++++++...............+++++.....                              ",
"                                  .....++++++...............+++++.....                              ",
"                                  .....++++++...............+++++.....                              ",
"                                  .....++++++...............+++++.....                              ",
"                                                                                                    ",
"                                                                                                    ",
"                                                                                                    ",
"                                                                                                    ",
"                                                                                                    ",
"                                                                                                    "
};
