/* XPM */
static char *_7a95bf1e81e405f99197bed8d7e9c3cEV0wh76rabH9hE6H[] = {
/* columns rows colors chars-per-pixel */
"100 100 8 1 ",
"  c None",
". c #3A100C",
"X c #4C0F18",
"o c #60291D",
"O c #955A3D",
"+ c #C84745",
"@ c #EAB889",
"# c #FFDFB0",
/* pixels */
"                                                                                                    ",
"                                                                                                    ",
"                                                                                                    ",
"                                                                                                    ",
"                                                                                                    ",
"                                                                                                    ",
"                                                                                                    ",
"                                                                                                    ",
"                                                                                                    ",
"                                                                                                    ",
"                                                                                                    ",
"                                                                                                    ",
"                                                                                                    ",
"                                                                                                    ",
"                                                                                                    ",
"                                                                                                    ",
"                                                                                                    ",
"                                                                                                    ",
"                                                                                                    ",
"                                                                                                    ",
"                                                                                                    ",
"                                                                                                    ",
"                                                                                                    ",
"                                                                                                    ",
"                                                                                                    ",
"                                                                                                    ",
"                                                                                                    ",
"                                        XXXXXX     XXXXX                                            ",
"                                        XXXXXX     XXXXX                                            ",
"                                        XXXXXX     XXXXX                                            ",
"                                        XXXXXX     XXXXX                                            ",
"                                        XXXXXX     XXXXX                                            ",
"                                        XXXXXX     XXXXX                                            ",
"                                   XXXXX++++++XXXXX+++++XXXXX                                       ",
"                                   XXXXX++++++XXXXX+++++XXXXX                                       ",
"                                   XXXXX++++++XXXXX+++++XXXXX                                       ",
"                                   XXXXX++++++XXXXX+++++XXXXX                                       ",
"                                   XXXXX++++++XXXXX+++++XXXXX                                       ",
"                                   ooooooooooo++++++++++XXXXX                                       ",
"                                   ooooooooooo++++++++++XXXXX                                       ",
"                                   ooooooooooo++++++++++XXXXX                                       ",
"                                   ooooooooooo++++++++++XXXXX                                       ",
"                                   ooooooooooo++++++++++XXXXX                                       ",
"                              ooooo@@@@@@@@@@@#####+++++XXXXXooooo                                  ",
"                              ooooo@@@@@@@@@@@#####+++++XXXXXooooo                                  ",
"                              ooooo@@@@@@@@@@@#####+++++XXXXXooooo                                  ",
"                              ooooo@@@@@@@@@@@#####+++++XXXXXooooo                                  ",
"                              ooooo@@@@@@@@@@@#####+++++XXXXXooooo                                  ",
"                              ooooo@@@@@##########################ooooo                             ",
"                              ooooo@@@@@##########################ooooo                             ",
"                              ooooo@@@@@##########################ooooo                             ",
"                              ooooo@@@@@##########################ooooo                             ",
"                              ooooo@@@@@##########################ooooo                             ",
"                         ooooo#####################.....##########.....ooooo                        ",
"                         ooooo#####################.....##########.....ooooo                        ",
"                         ooooo#####################.....##########.....ooooo                        ",
"                         ooooo#####################.....##########.....ooooo                        ",
"                         ooooo#####################.....##########.....ooooo                        ",
"                    ooooo@@@@@#####OOOOO#####################@@@@@#####@@@@@ooooo                   ",
"                    ooooo@@@@@#####OOOOO#####################@@@@@#####@@@@@ooooo                   ",
"                    ooooo@@@@@#####OOOOO#####################@@@@@#####@@@@@ooooo                   ",
"                    ooooo@@@@@#####OOOOO#####################@@@@@#####@@@@@ooooo                   ",
"                    ooooo@@@@@#####OOOOO#####################@@@@@#####@@@@@ooooo                   ",
"                    ooooo@@@@@#####OOOOO#####################@@@@@#####@@@@@ooooo                   ",
"                    ooooo@@@@@@@@@@OOOOO#####################+++++#####@@@@@ooooo                   ",
"                    ooooo@@@@@@@@@@OOOOO#####################+++++#####@@@@@ooooo                   ",
"                    ooooo@@@@@@@@@@OOOOO#####################+++++#####@@@@@ooooo                   ",
"                    ooooo@@@@@@@@@@OOOOO#####################+++++#####@@@@@ooooo                   ",
"                    ooooo@@@@@@@@@@OOOOO#####################+++++#####@@@@@ooooo                   ",
"                         oooooooooo@@@@@###############################ooooo                        ",
"                         oooooooooo@@@@@###############################ooooo                        ",
"                         oooooooooo@@@@@###############################ooooo                        ",
"                         oooooooooo@@@@@###############################ooooo                        ",
"                         oooooooooo@@@@@###############################ooooo                        ",
"                              .....@@@@@@@@@@@###############@@@@@@@@@@ooooo                        ",
"                              .....@@@@@@@@@@@###############@@@@@@@@@@ooooo                        ",
"                              .....@@@@@@@@@@@###############@@@@@@@@@@ooooo                        ",
"                              .....@@@@@@@@@@@###############@@@@@@@@@@ooooo                        ",
"                              .....@@@@@@@@@@@###############@@@@@@@@@@ooooo                        ",
"                              .....@@@@@ooooooooooo@@@@@@@@@@oooooooooo                             ",
"                              .....@@@@@ooooooooooo@@@@@@@@@@oooooooooo                             ",
"                              .....@@@@@ooooooooooo@@@@@@@@@@oooooooooo                             ",
"                              .....@@@@@ooooooooooo@@@@@@@@@@oooooooooo                             ",
"                              .....@@@@@ooooooooooo@@@@@@@@@@oooooooooo                             ",
"                                   ...........@@@@@...............                                  ",
"                                   ...........@@@@@...............                                  ",
"                                   ...........@@@@@...............                                  ",
"                                   ...........@@@@@...............                                  ",
"                                   ...........@@@@@...............                                  ",
"                                                                                                    ",
"                                                                                                    ",
"                                                                                                    ",
"                                                                                                    ",
"                                                                                                    ",
"                                                                                                    ",
"                                                                                                    ",
"                                                                                                    ",
"                                                                                                    ",
"                                                                                                    ",
"                                                                                                    "
};
