/* XPM */
static char *b2e914649eef4f0ee13dabf91511d218RiWkwGurTK4Wtj74[] = {
/* columns rows colors chars-per-pixel */
"100 100 8 1 ",
"  c None",
". c #421011",
"X c #60291D",
"o c #955A3D",
"O c #C84845",
"+ c #E88633",
"@ c #EABD95",
"# c #FFDFB0",
/* pixels */
"                                                                                                    ",
"                                                                                                    ",
"                                                                                                    ",
"                                                                                                    ",
"                                                                                                    ",
"                                                                                                    ",
"                                                                                                    ",
"                                                                                                    ",
"                                                                                                    ",
"                                                                                                    ",
"                                                                                                    ",
"                                                                                                    ",
"                                                                                                    ",
"                                                                                                    ",
"                                                                                                    ",
"                                                                                                    ",
"                                                                                                    ",
"                                                                                                    ",
"                                                                                                    ",
"                                                                                                    ",
"                                                                                                    ",
"                                                                                                    ",
"                                                                                                    ",
"                                                                                                    ",
"                                                                                                    ",
"                                                                                                    ",
"                                                                                                    ",
"                                        .....     ......                                            ",
"                                        .....     ......                                            ",
"                                        .....     ......                                            ",
"                                        .....     ......                                            ",
"                                        .....     ......                                            ",
"                                        .....     ......                                            ",
"                                   .....OOOOO.....OOOOOO.....                                       ",
"                                   .....OOOOO.....OOOOOO.....                                       ",
"                                   .....OOOOO.....OOOOOO.....                                       ",
"                                   .....OOOOO.....OOOOOO.....                                       ",
"                                   .....OOOOO.....OOOOOO.....                                       ",
"                                   XXXXXXXXXXOOOOOOOOOOO.....                                       ",
"                                   XXXXXXXXXXOOOOOOOOOOO.....                                       ",
"                                   XXXXXXXXXXOOOOOOOOOOO.....                                       ",
"                                   XXXXXXXXXXOOOOOOOOOOO.....                                       ",
"                                   XXXXXXXXXXOOOOOOOOOOO.....                                       ",
"                              XXXXX@@@@@@@@@@#####OOOOOO.....XXXXX                                  ",
"                              XXXXX@@@@@@@@@@#####OOOOOO.....XXXXX                                  ",
"                              XXXXX@@@@@@@@@@#####OOOOOO.....XXXXX                                  ",
"                              XXXXX@@@@@@@@@@#####OOOOOO.....XXXXX                                  ",
"                              XXXXX@@@@@@@@@@#####OOOOOO.....XXXXX                                  ",
"                              XXXXX@@@@@##########################XXXXX                             ",
"                              XXXXX@@@@@##########################XXXXX                             ",
"                              XXXXX@@@@@##########################XXXXX                             ",
"                              XXXXX@@@@@##########################XXXXX                             ",
"                              XXXXX@@@@@##########################XXXXX                             ",
"                         XXXXX####################......##########.....XXXXX                        ",
"                         XXXXX####################......##########.....XXXXX                        ",
"                         XXXXX####################......##########.....XXXXX                        ",
"                         XXXXX####################......##########.....XXXXX                        ",
"                         XXXXX####################......##########.....XXXXX                        ",
"                    XXXXX@@@@@#####ooooo#####################+++++#####@@@@@XXXXX                   ",
"                    XXXXX@@@@@#####ooooo#####################+++++#####@@@@@XXXXX                   ",
"                    XXXXX@@@@@#####ooooo#####################+++++#####@@@@@XXXXX                   ",
"                    XXXXX@@@@@#####ooooo#####################+++++#####@@@@@XXXXX                   ",
"                    XXXXX@@@@@#####ooooo#####################+++++#####@@@@@XXXXX                   ",
"                    XXXXX@@@@@#####ooooo#####################+++++#####@@@@@XXXXX                   ",
"                    XXXXX@@@@@@@@@@ooooo#####################OOOOO#####@@@@@XXXXX                   ",
"                    XXXXX@@@@@@@@@@ooooo#####################OOOOO#####@@@@@XXXXX                   ",
"                    XXXXX@@@@@@@@@@ooooo#####################OOOOO#####@@@@@XXXXX                   ",
"                    XXXXX@@@@@@@@@@ooooo#####################OOOOO#####@@@@@XXXXX                   ",
"                    XXXXX@@@@@@@@@@ooooo#####################OOOOO#####@@@@@XXXXX                   ",
"                         XXXXXXXXXX@@@@@###############################XXXXX                        ",
"                         XXXXXXXXXX@@@@@###############################XXXXX                        ",
"                         XXXXXXXXXX@@@@@###############################XXXXX                        ",
"                         XXXXXXXXXX@@@@@###############################XXXXX                        ",
"                         XXXXXXXXXX@@@@@###############################XXXXX                        ",
"                         .....@@@@@@@@@@@@@@@################@@@@@@@@@@XXXXX                        ",
"                         .....@@@@@@@@@@@@@@@################@@@@@@@@@@XXXXX                        ",
"                         .....@@@@@@@@@@@@@@@################@@@@@@@@@@XXXXX                        ",
"                         .....@@@@@@@@@@@@@@@################@@@@@@@@@@XXXXX                        ",
"                         .....@@@@@@@@@@@@@@@################@@@@@@@@@@XXXXX                        ",
"                         .....+++++..........@@@@@@@@@@@@@@@@XXXXXXXXXX                             ",
"                         .....+++++..........@@@@@@@@@@@@@@@@XXXXXXXXXX                             ",
"                         .....+++++..........@@@@@@@@@@@@@@@@XXXXXXXXXX                             ",
"                         .....+++++..........@@@@@@@@@@@@@@@@XXXXXXXXXX                             ",
"                         .....+++++..........@@@@@@@@@@@@@@@@XXXXXXXXXX                             ",
"                                             ................+++++.....                             ",
"                                             ................+++++.....                             ",
"                                             ................+++++.....                             ",
"                                             ................+++++.....                             ",
"                                             ................+++++.....                             ",
"                                                                                                    ",
"                                                                                                    ",
"                                                                                                    ",
"                                                                                                    ",
"                                                                                                    ",
"                                                                                                    ",
"                                                                                                    ",
"                                                                                                    ",
"                                                                                                    ",
"                                                                                                    ",
"                                                                                                    "
};
