/* XPM */
static char *result[] = {
/* columns rows colors chars-per-pixel */
"100 100 8 1 ",
"  c #623939",
". c #5E483B",
"X c #7C4743",
"o c #8C6546",
"O c #A58866",
"+ c #C1A975",
"@ c #928A8B",
"# c None",
/* pixels */
"############################################...........#############################################",
"############################################...........#############################################",
"###########################################.ooooooooooo..###########################################",
"###########################################.oooo@@ooooo..###########################################",
"###########################################.oooo@@ooooo..###########################################",
"#########################################  .ooooooooooo.. ##########################################",
"########################################   .ooooooooooo..X  ########################################",
"########################################   .ooooooooooo..X  ########################################",
"#####################################   X  .ooooooooooo..XXX  ######################################",
"#################################### XXXX  .ooooooooooo..XXXXX  ####################################",
"#################################### XXXX  .ooooooooooo..XXXXX  ####################################",
"##################################  XXXXX  .ooooooooooo..XXXXXXX ###################################",
"#################################   XXXX   .ooooooooooo.. XXXXXX   #################################",
"#################################   XXXX   .ooooooooooo.. XXXXXX   #################################",
"###############################  X       XX.ooooooooooo..X  XXXX    ################################",
"#############################  XXXXX    oXX.ooooooooooo..Xoo       X   #############################",
"#############################  XXXXX    oXX.ooooooooooo..Xoo       X   #############################",
"###########################  XXXXX  oooooXX.ooooooooooo..Xoooooo   XXXX ############################",
"########################## XXXXXXX  oooooXX.ooooooooooo..Xoooooo   XXXXX  ##########################",
"########################## XXXXXXX  oooooXX.ooooooooooo..Xoooooo   XXXXX  ##########################",
"########################   XXXXXX   ooooX  .ooooooooooo.. XXoooo    XXXX   #########################",
"######################  XX XXXX     XXXX XX.ooooooooooo..   XXXX XX       X   ######################",
"######################  XX XXXX     XXXX XX.ooooooooooo..   XXXX XX       X   ######################",
"####################  XXXXX    XX       XXX.ooooooooooo..       XXXX    XXXooo #####################",
"################### XXXXXX XXXXXX   XXXXXXX.ooooooooooo..   XXXX XXXXXXX  Xoooo  ###################",
"################### XXXXXX XXXXXX   XXXXXXX.ooooooooooo..   XXXX XXXXXXX  Xoooo  ###################",
"#################  XXXXXXX XXXXXX   XXXXXXX.ooooooooooo..   XXXX XXXXXXX  Xoooooo ##################",
"################   XXXXX   XXXX     XXXXX  .ooooooooooo..   XXXX   XXXXX   XXXooo    ###############",
"################   XXXXX   XXXX     XXXXX  .ooooooooooo..   XXXX   XXXXX   XXXooo    ###############",
"#############   X  XXX  XX       X  XXXX XX.ooooooooooo..X  XXXX XX XXXX  X   XXX XXX ##############",
"############ XXXXXX   XXXXX    ooXXX    XXX.ooooooooooo..Xoo    XXXo    XXXXXX   XXXXX  ############",
"############ XXXXXX   XXXXX    ooXXX    XXX.ooooooooooo..Xoo    XXXo    XXXXXX   XXXXX  ############",
"##########  XXXXX  XXXXXXX ooooooX  XXXXXXX.oooo@@ooooo..Xoooooo XXooooo  XXXXXXX XXXXXX ###########",
"######### XXXXXXX  XXXXXXX ooooooX  XXXXXXX.ooooooooooo..Xoooooo XXooooo  XXXXXXX XXXXXXX  #########",
"######### XXXXXXX  XXXXXXX ooooooX  XXXXXXX.ooooooooooo..Xoooooo XXooooo  XXXXXXX XXXXXXX  #########",
"######    XXXXXX   XXXXX   ooooXX   XXXXX  .ooooooooooo.. XXoooo   Xoooo   XXXXXX    XXXX    #######",
"##### XXX XXX   X  XXX     XXXX  X  XXXX   .ooooooooooo..   XXXX XX XXXX      XXX XXX XXX  XX  #####",
"##### XXX XXX   X  XXX     XXXX  X  XXXX   .ooooooooooo..   XXXX XX XXXX      XXX XXX XXX  XX  #####",
"###  XXXXX   oooXXX   XX       XXXXX    X  .ooooooooooo.. XX    XXXX       XXX   XXXXo   XXXXoo ####",
"## XXXXXX ooooooX  XXXXX   XXXXXXX  XXXXX  .ooooooooooo.. XXXXXX XXXXXXX   XXXXXX XXXoooo  XXooo  ##",
"## XXXXXX ooooooX  XXXXX   XXXXXXX  XXXXX  .ooooooooooo.. XXXXXX XXXXXXX   XXXXXX XXXoooo  XXooo  ##",
"  XXXXXXX ooooooX  XXXXX   XXXXXXX  XXXXX...ooooooooooo...XXXXXX XXXXXXX   XXXXXX XXXoooo  XXooooo  ",
"  XXXX    oooXXX   XXX     XXXXXX   XXXX.ooooooooooooooooo..XXXX   XXXXX      XXX    Xooo    XXooo  ",
"  XXXX    oooXXX   XXX     XXXXXX   XXXX.ooooooooooooooooo..XXXX   XXXXX      XXX    Xooo    XXooo  ",
"  XXX     XXX   X       XX XXXX  X   ...oooooooooooooooooooo..XX XX XXXX  X       XXX XXX      XXX  ",
"##   X       XXXXXX   XXXXX    ooXXX.oooooo..............ooooo..XXXX    XXXXXX   XXXXX       XX   ##",
"##   X       XXXXXX   XXXXX    ooXXX.oooooo..............ooooo..XXXX    XXXXXX   XXXXX       XX   #O",
"  XXXX    XXXXXXX  XXXXXXX ooooooX..ooooo..OOOOOOOOOOOOOO.oooooo.XXXXXXX  XXXXXXX XXXXXXX    XXXXX  ",
"  XXXX    XXXXXXX  XXXXXXX oooooo.oooooo.OOOOOOOOOOOOOOOOO..ooooo..XXXXX  XXXXXXX XXXXXXX    XXXXX  ",
"  XXXX    XXXXXXX  XXXXXXX oooooo.oooooo.OOOOOOOOOOOOOOOOO..ooooo..XXXXX  XXXXXXX XXXXXXX    XXXXX  ",
"  XXX     XXXXXX   XXXXX   oooo..oooo...OOO++++oooooooo++OOO..ooooo.XXXX   XXXXXX    XXXX      XXX  ",
"      XXX XXX   X  XXX  XX XX..ooooo.ooooooooooooooooooooooooo..oooo...X  o   XXX ooo XXX  XX       ",
"      XXX XXX   X  XXX  XX XX..ooooo.ooooooooooooooooooooooooo..oooo...X  o   XXX ooo XXX  XX       ",
"##   oXXXX   oooXXX   XXXXX..ooooo..OOOO+..ooooooooooooooo..OOOO.oooooo.XXoooo   Xoooo   XXXXXX   #O",
"  ooooXXX ooooooX  XXXXXXX.oooooo.OOO++++..ooooo......oooo..++OOO..ooooo..ooooooo ooooooo  XXXXXXX  ",
"  ooooXXX ooooooX  XXXXXXX.oooooo.OOO++++..ooooo......oooo..++OOO..ooooo..ooooooo ooooooo  XXXXXXX  ",
"  ooooXXX ooooooX  XXXXX..ooooo..OOO++++.oooooo........oooOO..++OOO.oooooo.oooooo XXXoooo  XXXXXXX  ",
"  oooX    oooXXX   XXX..ooooo..oooooOOOO.ooo.............ooo..OOoooo...oooo...ooo    Xooo    XXXXX  ",
"  oooX    oooXXX   XXX..ooooo..oooooOOOO.ooo.............ooo..OOoooo...oooo...ooo    Xooo    XXXXX  ",
"  XXX XXX XXX   X  X..ooooo..OOOO+++++++.ooo.............ooo..+++++OOOO.oooooo.XX     XXX      XXX  ",
"##   XXXXX   XXXX  .oooooo.OOOO+++++++++.ooo.............ooo..++++++OOOO..ooooo.. XXXX       XX   ##",
"##   XXXXX   XXXX  .oooooo.OOOO+++++++++.ooo.............ooo..++++++OOOO..ooooo.. XXXX       XX   ##",
"  XXXXXXX XXXXXXX..ooooo..OOO+++++++++++O..oooo........ooo..OO+++++++++OOO.oooooo.XXXXXXX    XXXXX  ",
"  XXXXXXX XXX   .ooooo..oooooOOOOOOOOOOOO..ooooo......oooo..OOOOOOOOOOOoooo...oooo...XXXX    XXXXX  ",
"  XXXXXXX XXX   .ooooo..oooooOOOOOOOOOOOO..ooooo......oooo..OOOOOOOOOOOoooo...oooo...XXXX    XXXXX  ",
"  XXXX       ...oooo..OOOO+++++++++++++++OO....oooooooo...OO++++++++++++++OOOO.oooooo.         XXX  ",
"  XXX XXXX  .oooooo.OOOO+++++++++++++++++++OOOO........OOO+++++++++++++++++OOOO..ooooo.. XXXX       ",
"  XXX XXXX  .oooooo.OOOO+++++++++++++++++++OOOO........OOO+++++++++++++++++OOOO..ooooo.. XXXX       ",
"##   XXXXX..ooooo..OOO+++++++++++++++++++++++++OOOOOOOO+++++++++++++++++++++++OOO.oooooo.XXXXXX   #O",
"  XXXXXXX.oooooo.oooOOOOOOOOOOOOOOOOXXXXXXXXXXXXXXXXXXXXXXXXXXXXOOOOOOOOOOOOOOoooo...oooo..XXXXXXX  ",
"  XXXXXXX.oooooo.oooOOOOOOOOOOOOOOOOXXXXXXXXXXXXXXXXXXXXXXXXXXXXOOOOOOOOOOOOOOoooo...oooo..XXXXXXX  ",
"  XXXX...oooo...OOO++++++++++++++OXXoooooooooooooooooooooooooooo.OO++++++++++++++OOOO.ooooo..XXXXX  ",
"  XXX.oooooo.oooO++++++++++++++OoXoooooooooooooooooooooooooooooooXXO++++++++++++++OOOo..ooooo..XXX  ",
"  XXX.oooooo.oooO++++++++++++++OoXoooooooooooooooooooooooooooooooXXO++++++++++++++OOOo..ooooo..XXX  ",
"## ..ooooo..OoooO++++++++++++++OoXoooooooooooooooooooooooooooooooXXO++++++++++++++OOOooO.oooooo.  ##",
"###..oooo.OOOoooOOOOOOOOOOOOOOOOoXoooooo....................oooooXXOOOOOOOOOOOOOOOOOOooO...oooo.####",
"###..oooo.OOOoooOOOOOOOOOOOOOOOOoXoooooo....................oooooXXOOOOOOOOOOOOOOOOOOooO...oooo.####",
"#####.....OO+oooO++++++++++++++OoXooo...XXXXXXXXXXXXXXXXXXXX..oooXXO++++++++++++++OOOoo+.......#####",
"#########.+++oooO++++++++++++++OoXooo...XXXX             XXX..oooXXO++++++++++++++OOOoo+...#########",
"#########.+++oooO++++++++++++++OoXooo...XXXX             XXX..oooXXO++++++++++++++OOOoo+...#########",
"#########.+++oooO++++++++++++++OoXooo...XXX ...... ...... XX..ooo.XO++++++++++++++OOOoo+...#########",
"##########..o+OooOOOOOOOOOOOOOOOoXooo...XXX ......X...... XX..ooo.XOOOOOOOOOOOOOOOooo+oo.###########",
"##########..o+OooOOOOOOOOOOOOOOOoXooo...XXX ......X...... XX..ooo.XOOOOOOOOOOOOOOOooo+oo.###########",
"##########..++OooOO++++++++++++OoXooo...XXX    XXXXXXXX   XX..ooo.XO+++++++++++++Oooo+++.###########",
"##########..+OOooOO++++++++++++OoXooo...XXX ...... ...... XX..ooo.XO+++++++++++++Oooo+OO.###########",
"##########..OOOooOO++++++++++++OoXooo...XXX ...... ...... XX..ooo.XO+++++++++++++OoooOOO.###########",
"##########..oooooOO++++++++++++OoXooo...XXX ...... ...... XX..ooo.XO+++++++++++++Ooooooo.###########",
"############.oooOOOOOOOOOOOOOOOOoXooo...XXX               XX..ooo.XOOOOOOOOOOOOOOOOOOo..############",
"############.oooOOOOOOOOOOOOOOOOoXooo...XXX               XX..ooo.XOOOOOOOOOOOOOOOOOOo..############",
"##########..+++OoOO++++++++++++OoXooo...XXXXXXXXXXXXXXXXXXXX..ooo.XO+++++++++++++Oooo+++.###########",
"##########..+OOooOO++++++++++++OoXooo...@ooXXXXXXXXXXXXXXXXX..ooo.XO+++++++++++++Oooo+OO.###########",
"##########..+OOooOO++++++++++++OoXooo...@ooXXXXXXXXXXXXXXXXX..ooo.XO+++++++++++++Oooo+OO.###########",
"##########..oooooOO++++++++++++OoXooo...oooXXXXXXXXXXXXXXXXX..ooo.XO+++++++++++++Ooooooo.###########",
"############.ooooOOOOOOOOOOOOOOOoXooo...XXXXXXXXXXXXXXXXXXXX..ooo.XOOOOOOOOOOOOOOOoooo..############",
"############.ooooOOOOOOOOOOOOOOOoXooo...XXXXXXXXXXXXXXXXXXXX..ooo.XOOOOOOOOOOOOOOOoooo..############",
"############.++++ooO+++++++++++OoXooo...XXXXXXXXXXXXXXXXXXXX..ooo.XO+++++++++++Ooo++++..############",
"############.+++OooO+++++++++++OoXooo...XXXXXXXXXXXXXXXXXXXX..ooo.XO+++++++++++Ooo+++O..############",
"############.OOOOooOOOOOOOOOOOOOoXoXX...XXXXXXXXXXXXXXXXXXXX..ooo.XO+++++++++++OooOOOO..############",
"############.ooooooooooooooooooooX...... XX        XX     XX....X.Xooooooooooooooooooo..############",
"#############......XXXXXXXooooooo.......                    ......Xoooooooooooooo.....##############"
};
