/* XPM */
static char *_c23930ca52f4c22cadbfc68800d1d3c8Pmi7w8goUYawk92[] = {
/* columns rows colors chars-per-pixel */
"100 100 3 1 ",
"  c #B0905D",
". c #A6845D",
"X c #BD9964",
/* pixels */
"                                                                                                    ",
"                    .                                               .                               ",
"    ..  X               ..          .               ..  X               ..          .               ",
"    ..                  ..                     .    ..                  ..                     .    ",
"            ..                X  ..        XX               ..                X  ..        XX       ",
"            ..                   ..        XX               ..                   ..        XX       ",
"                   XX                                              XX                               ",
"          X        XX                                     X        XX                               ",
"                                                                                                    ",
"    XX                                   .          XX                                   .          ",
"    XX                             X                XX                             X                ",
"         ..                                              ..                                         ",
"         ..   ..          X                              ..   ..          X                         ",
"       .      ..                   ..    XX            .      ..                   ..    XX         ",
"                                   ..    XX                                        ..    XX         ",
"                                                                                                    ",
"                                                                                                    ",
"                    .                                               .                               ",
"    ..  X               ..          .               ..  X               ..          .               ",
"    ..                  ..                     .    ..                  ..                     .    ",
"            ..                X  ..        XX               ..                X  ..        XX       ",
"            ..                   ..        XX               ..                   ..        XX       ",
"                   XX                                              XX                               ",
"          X        XX                                     X        XX                               ",
"                                                                                                    ",
"    XX                                   .          XX                                   .          ",
"    XX                             X                XX                             X                ",
"         ..                                              ..                                         ",
"         ..   ..          X                              ..   ..          X                         ",
"       .      ..                   ..    XX            .      ..                   ..    XX         ",
"                                   ..    XX                                        ..    XX         ",
"                                                                                                    ",
"                                                                                                    ",
"                    .                                               .                               ",
"    ..  X               ..          .               ..  X               ..          .               ",
"    ..                  ..                     .    ..                  ..                     .    ",
"            ..                X  ..        XX               ..                X  ..        XX       ",
"            ..                   ..        XX               ..                   ..        XX       ",
"                   XX                                              XX                               ",
"          X        XX                                     X        XX                               ",
"                                                                                                    ",
"    XX                                   .          XX                                   .          ",
"    XX                             X                XX                             X                ",
"         ..                                              ..                                         ",
"         ..   ..          X                              ..   ..          X                         ",
"       .      ..                   ..    XX            .      ..                   ..    XX         ",
"                                   ..    XX                                        ..    XX         ",
"                                                                                                    ",
"                                                                                                    ",
"                    .                                               .                               ",
"    ..  X               ..          .               ..  X               ..          .               ",
"    ..                  ..                     .    ..                  ..                     .    ",
"            ..                X  ..        XX               ..                X  ..        XX       ",
"            ..                   ..        XX               ..                   ..        XX       ",
"                   XX                                              XX                               ",
"          X        XX                                     X        XX                               ",
"                                                                                                    ",
"    XX                                   .          XX                                   .          ",
"    XX                             X                XX                             X                ",
"         ..                                              ..                                         ",
"         ..   ..          X                              ..   ..          X                         ",
"       .      ..                   ..    XX            .      ..                   ..    XX         ",
"                                   ..    XX                                        ..    XX         ",
"                                                                                                    ",
"                                                                                                    ",
"                    .                                               .                               ",
"    ..  X               ..          .               ..  X               ..          .               ",
"    ..                  ..                     .    ..                  ..                     .    ",
"            ..                X  ..        XX               ..                X  ..        XX       ",
"            ..                   ..        XX               ..                   ..        XX       ",
"                   XX                                              XX                               ",
"          X        XX                                     X        XX                               ",
"                                                                                                    ",
"    XX                                   .          XX                                   .          ",
"    XX                             X                XX                             X                ",
"         ..                                              ..                                         ",
"         ..   ..          X                              ..   ..          X                         ",
"       .      ..                   ..    XX            .      ..                   ..    XX         ",
"                                   ..    XX                                        ..    XX         ",
"                                                                                                    ",
"                                                                                                    ",
"                    .                                               .                               ",
"    ..  X               ..          .               ..  X               ..          .               ",
"    ..                  ..                     .    ..                  ..                     .    ",
"            ..                X  ..        XX               ..                X  ..        XX       ",
"            ..                   ..        XX               ..                   ..        XX       ",
"                   XX                                              XX                               ",
"          X        XX                                     X        XX                               ",
"                                                                                                    ",
"    XX                                   .          XX                                   .          ",
"    XX                             X                XX                             X                ",
"         ..                                              ..                                         ",
"         ..   ..          X                              ..   ..          X                         ",
"       .      ..                   ..    XX            .      ..                   ..    XX         ",
"                                   ..    XX                                        ..    XX         ",
"                                                                                                    ",
"                                                                                                    ",
"                    .                                               .                               ",
"    ..  X               ..          .               ..  X               ..          .               ",
"    ..                  ..                     .    ..                  ..                     .    "
};
