/* XPM */
static char *_ccce119985846d3ff7c7306306d22b0PyR6Twke8O563jXs[] = {
/* columns rows colors chars-per-pixel */
"100 100 8 1 ",
"  c None",
". c #573C38",
"X c #633B41",
"o c #704C44",
"O c #AC635D",
"+ c #C98A52",
"@ c #CBAE93",
"# c #D9C4A5",
/* pixels */
"                                  XXXXXXXX        XXXXXXXXX                                         ",
"                                  XXXXXXXX        XXXXXXXXX                                         ",
"                                  XXXXXXXX        XXXXXXXXX                                         ",
"                                  XXXXXXXX        XXXXXXXXX                                         ",
"                                  XXXXXXXX        XXXXXXXXX                                         ",
"                                  XXXXXXXX        XXXXXXXXX                                         ",
"                                  XXXXXXXX        XXXXXXXXX                                         ",
"                                  XXXXXXXX        XXXXXXXXX                                         ",
"                                  XXXXXXXX        XXXXXXXXX                                         ",
"                         XXXXXXXXXOOOOOOOOXXXXXXXXOOOOOOOOOXXXXXXXX                                 ",
"                         XXXXXXXXXOOOOOOOOXXXXXXXXOOOOOOOOOXXXXXXXX                                 ",
"                         XXXXXXXXXOOOOOOOOXXXXXXXXOOOOOOOOOXXXXXXXX                                 ",
"                         XXXXXXXXXOOOOOOOOXXXXXXXXOOOOOOOOOXXXXXXXX                                 ",
"                         XXXXXXXXXOOOOOOOOXXXXXXXXOOOOOOOOOXXXXXXXX                                 ",
"                         XXXXXXXXXOOOOOOOOXXXXXXXXOOOOOOOOOXXXXXXXX                                 ",
"                         XXXXXXXXXOOOOOOOOXXXXXXXXOOOOOOOOOXXXXXXXX                                 ",
"                         XXXXXXXXXOOOOOOOOXXXXXXXXOOOOOOOOOXXXXXXXX                                 ",
"                         oooooooooooooooooOOOOOOOOOOOOOOOOOXXXXXXXX                                 ",
"                         oooooooooooooooooOOOOOOOOOOOOOOOOOXXXXXXXX                                 ",
"                         oooooooooooooooooOOOOOOOOOOOOOOOOOXXXXXXXX                                 ",
"                         oooooooooooooooooOOOOOOOOOOOOOOOOOXXXXXXXX                                 ",
"                         oooooooooooooooooOOOOOOOOOOOOOOOOOXXXXXXXX                                 ",
"                         oooooooooooooooooOOOOOOOOOOOOOOOOOXXXXXXXX                                 ",
"                         oooooooooooooooooOOOOOOOOOOOOOOOOOXXXXXXXX                                 ",
"                         oooooooooooooooooOOOOOOOOOOOOOOOOOXXXXXXXX                                 ",
"                 oooooooo@@@@@@@@@@@@@@@@@########OOOOOOOOOXXXXXXXXoooooooo                         ",
"                 oooooooo@@@@@@@@@@@@@@@@@########OOOOOOOOOXXXXXXXXoooooooo                         ",
"                 oooooooo@@@@@@@@@@@@@@@@@########OOOOOOOOOXXXXXXXXoooooooo                         ",
"                 oooooooo@@@@@@@@@@@@@@@@@########OOOOOOOOOXXXXXXXXoooooooo                         ",
"                 oooooooo@@@@@@@@@@@@@@@@@########OOOOOOOOOXXXXXXXXoooooooo                         ",
"                 oooooooo@@@@@@@@@@@@@@@@@########OOOOOOOOOXXXXXXXXoooooooo                         ",
"                 oooooooo@@@@@@@@@@@@@@@@@########OOOOOOOOOXXXXXXXXoooooooo                         ",
"                 oooooooo@@@@@@@@@@@@@@@@@########OOOOOOOOOXXXXXXXXoooooooo                         ",
"                 oooooooo@@@@@@@@@@@@@@@@@########OOOOOOOOOXXXXXXXXoooooooo                         ",
"                 oooooooo@@@@@@@@@#########################################ooooooooo                ",
"                 oooooooo@@@@@@@@@#########################################ooooooooo                ",
"                 oooooooo@@@@@@@@@#########################################ooooooooo                ",
"                 oooooooo@@@@@@@@@#########################################ooooooooo                ",
"                 oooooooo@@@@@@@@@#########################################ooooooooo                ",
"                 oooooooo@@@@@@@@@#########################################ooooooooo                ",
"                 oooooooo@@@@@@@@@#########################################ooooooooo                ",
"                 oooooooo@@@@@@@@@#########################################ooooooooo                ",
"         oooooooo@@@@@@@@#########################.........################.........                ",
"         oooooooo@@@@@@@@#########################.........################.........                ",
"         oooooooo@@@@@@@@#########################.........################.........                ",
"         oooooooo@@@@@@@@#########################.........################.........                ",
"         oooooooo@@@@@@@@#########################.........################.........                ",
"         oooooooo@@@@@@@@#########################.........################.........                ",
"         oooooooo@@@@@@@@#########################.........################.........                ",
"         oooooooo@@@@@@@@#########################.........################.........                ",
"         oooooooo##################################################++++++++#########oooooooo        ",
"         oooooooo##################################################++++++++#########oooooooo        ",
"         oooooooo##################################################++++++++#########oooooooo        ",
"         oooooooo##################################################++++++++#########oooooooo        ",
"         oooooooo##################################################++++++++#########oooooooo        ",
"         oooooooo##################################################++++++++#########oooooooo        ",
"         oooooooo##################################################++++++++#########oooooooo        ",
"         oooooooo##################################################++++++++#########oooooooo        ",
"         oooooooo##################################################++++++++#########oooooooo        ",
"ooooooooo@@@@@@@@########OOOOOOOOO#################################OOOOOOOO#########@@@@@@@@oooooooo",
"ooooooooo@@@@@@@@########OOOOOOOOO#################################OOOOOOOO#########@@@@@@@@oooooooo",
"ooooooooo@@@@@@@@########OOOOOOOOO#################################OOOOOOOO#########@@@@@@@@oooooooo",
"ooooooooo@@@@@@@@########OOOOOOOOO#################################OOOOOOOO#########@@@@@@@@oooooooo",
"ooooooooo@@@@@@@@########OOOOOOOOO#################################OOOOOOOO#########@@@@@@@@oooooooo",
"ooooooooo@@@@@@@@########OOOOOOOOO#################################OOOOOOOO#########@@@@@@@@oooooooo",
"ooooooooo@@@@@@@@########OOOOOOOOO#################################OOOOOOOO#########@@@@@@@@oooooooo",
"ooooooooo@@@@@@@@########OOOOOOOOO#################################OOOOOOOO#########@@@@@@@@oooooooo",
"ooooooooo@@@@@@@@@@@@@@@@OOOOOOOOO##################################################@@@@@@@@oooooooo",
"ooooooooo@@@@@@@@@@@@@@@@OOOOOOOOO##################################################@@@@@@@@oooooooo",
"ooooooooo@@@@@@@@@@@@@@@@OOOOOOOOO##################################################@@@@@@@@oooooooo",
"ooooooooo@@@@@@@@@@@@@@@@OOOOOOOOO##################################################@@@@@@@@oooooooo",
"ooooooooo@@@@@@@@@@@@@@@@OOOOOOOOO##################################################@@@@@@@@oooooooo",
"ooooooooo@@@@@@@@@@@@@@@@OOOOOOOOO##################################################@@@@@@@@oooooooo",
"ooooooooo@@@@@@@@@@@@@@@@OOOOOOOOO##################################################@@@@@@@@oooooooo",
"ooooooooo@@@@@@@@@@@@@@@@OOOOOOOOO##################################################@@@@@@@@oooooooo",
"         oooooooooooooooo@@@@@@@@@@@@@@@@@#################################@@@@@@@@@oooooooo        ",
"         oooooooooooooooo@@@@@@@@@@@@@@@@@#################################@@@@@@@@@oooooooo        ",
"         oooooooooooooooo@@@@@@@@@@@@@@@@@#################################@@@@@@@@@oooooooo        ",
"         oooooooooooooooo@@@@@@@@@@@@@@@@@#################################@@@@@@@@@oooooooo        ",
"         oooooooooooooooo@@@@@@@@@@@@@@@@@#################################@@@@@@@@@oooooooo        ",
"         oooooooooooooooo@@@@@@@@@@@@@@@@@#################################@@@@@@@@@oooooooo        ",
"         oooooooooooooooo@@@@@@@@@@@@@@@@@#################################@@@@@@@@@oooooooo        ",
"         oooooooooooooooo@@@@@@@@@@@@@@@@@#################################@@@@@@@@@oooooooo        ",
"         oooooooooooooooo@@@@@@@@@@@@@@@@@#################################@@@@@@@@@oooooooo        ",
"         ........@@@@@@@@@@@@@@@@@@@@@@@@@@@@@@@@@@@@@@@@@@@@@@@@@@@@@@@@@@ooooooooo                ",
"         ........@@@@@@@@@@@@@@@@@@@@@@@@@@@@@@@@@@@@@@@@@@@@@@@@@@@@@@@@@@ooooooooo                ",
"         ........@@@@@@@@@@@@@@@@@@@@@@@@@@@@@@@@@@@@@@@@@@@@@@@@@@@@@@@@@@ooooooooo                ",
"         ........@@@@@@@@@@@@@@@@@@@@@@@@@@@@@@@@@@@@@@@@@@@@@@@@@@@@@@@@@@ooooooooo                ",
"         ........@@@@@@@@@@@@@@@@@@@@@@@@@@@@@@@@@@@@@@@@@@@@@@@@@@@@@@@@@@ooooooooo                ",
"         ........@@@@@@@@@@@@@@@@@@@@@@@@@@@@@@@@@@@@@@@@@@@@@@@@@@@@@@@@@@ooooooooo                ",
"         ........@@@@@@@@@@@@@@@@@@@@@@@@@@@@@@@@@@@@@@@@@@@@@@@@@@@@@@@@@@ooooooooo                ",
"         ........@@@@@@@@@@@@@@@@@@@@@@@@@@@@@@@@@@@@@@@@@@@@@@@@@@@@@@@@@@ooooooooo                ",
"                 ........+++++++++.........................++++++++........                         ",
"                 ........+++++++++.........................++++++++........                         ",
"                 ........+++++++++.........................++++++++........                         ",
"                 ........+++++++++.........................++++++++........                         ",
"                 ........+++++++++.........................++++++++........                         ",
"                 ........+++++++++.........................++++++++........                         ",
"                 ........+++++++++.........................++++++++........                         ",
"                 ........+++++++++.........................++++++++........                         "
};
