/* XPM */
static char *fbf3421cfec341edd22c3c926c22a730n5q7J6VOgfbwY4Ns[] = {
/* columns rows colors chars-per-pixel */
"100 100 8 1 ",
"  c None",
". c #623838",
"X c #604939",
"o c #764243",
"O c #854E45",
"+ c #8E6944",
"@ c #A58866",
"# c #C1A975",
/* pixels */
"                                              XXXXXXXXX                                             ",
"                                              XXXXXXXXX                                             ",
"                                             X+++++++++X                                            ",
"                                             X+++@OO+++X                                            ",
"                                             X+++@OO+++X                                            ",
"                                           ..X+++OOO+++X..                                          ",
"                                          .ooX+++++++++Xoo.                                         ",
"                                          .ooX+++++++++Xoo.                                         ",
"                                        ..oooX+++++++++XooO..                                       ",
"                                       .oooooX+++++++++XooOOO.                                      ",
"                                       .oooooX+++++++++XooOOO.                                      ",
"                                     ..ooooooX+++++++++XooOOOO..                                    ",
"                                    ...oooo..X+++++++++X..oOOO...                                   ",
"                                    ...oooo..X+++++++++X..oOOO...                                   ",
"                                  ..o..ooo.OOX+++++++++XOO.ooo..o..                                 ",
"                                 .OOooo...OOOX+++++++++XOOO...ooooo.                                ",
"                                 .OOooo...OOOX+++++++++XOOO...ooooo.                                ",
"                               ..OOOo..OOOOOOX+++++++++XOOOOO+..oooo..                              ",
"                              .OOOOOo..OOOOOOX+++++++++XOOOOO+..oooooo.                             ",
"                              .OOOOOo..OOOOOOX+++++++++XOOOOO+..oooooo.                             ",
"                            ...OOOoo...OOOO..X+++++++++X..OOO+...ooooo...                           ",
"                           .oo.ooo..o..OOO.ooX+++++++++Xoo.OOO..o..ooo.OO.                          ",
"                           .oo.ooo..o..OOO.ooX+++++++++Xoo.OOO..o..ooo.OO.                          ",
"                         ..Oooo...ooooo...OooX+++++++++Xooo...oooOO...OOOO..                        ",
"                        .OOOoo.oooooo..OOOOooX+++++++++Xoooooo..oOOOOO.OOOOO.                       ",
"                        .OOOoo.oooooo..OOOOooX+++++++++Xoooooo..oOOOOO.OOOOO.                       ",
"                      ..OOOOoo.oooooo..OOOOooX+++++++++Xoooooo..oOOOOO.OOOOOO..                     ",
"                     ...OOOo...ooooo...OOOo..X+++++++++X..oooo...ooOOO...OOOO...                    ",
"                     ...OOOo...ooooo...OOOo..X+++++++++X..oooo...ooOOO...OOOO...                    ",
"                   ..o..ooo.oo.ooo..O..ooo.ooX+++++++++XOO.ooo..O..ooo.oo.OOO..o..                  ",
"                  .OOooo...Oooo...OOOOO...OooX+++++++++XOOO...OOOOO...oooO...oooOO.                 ",
"                  .OOooo...Oooo...OOOOO...OooX+++++++++XOOO...OOOOO...oooO...oooOO.                 ",
"                ..OOOo..OOOOoo.++OOOO..OOOOooX+++@OO+++XOOOOOO..OOOO++.ooOOOO..oOOO..               ",
"               .OOOOOo..OOOOoo.++OOOO..OOOOooX+++OOO+++XOOOOOO..OOOO++.ooOOOO..oOOOOO.              ",
"               .OOOOOo..OOOOoo.++OOOO..OOOOooX+++OOO+++XOOOOOO..OOOO++.ooOOOO..oOOOOO.              ",
"             ...OOOoo...OOOo...++OOO...OOOo..X+++++++++X..OOOO...OOO++...oOOO...ooOOO...            ",
"            .oo.ooo..O..ooo.oo.OOO..o..ooo.ooX+++++++++Xoo.OOO..o..OOO.oo.ooo..O..ooo.OO.           ",
"          ..Oooo...OOOOO...oooo...OOooo...oooXOOOOOOOOOXooo...oooOO...oooo...OOOOO...OOOO..         ",
"          ..Oooo...OOOOO...oooo...OOooo...oooXOOOOOOOOOXooo...oooOO...oooo...OOOOO...OOOO..         ",
"         .OOOoo.OOOOOO..Oooooo.OOOOOo..OoooooXOOOOOOOOOXoooooO..oOOOOO.oooooO..OOOOOO.OOOOO.        ",
"       ..OOOOoo.OOOOOO..Oooooo.OOOOOo..OoooXXXOOOOOOOOOXXXoooO..oOOOOO.oooooO..OOOOOO.OOOOO+.       ",
"       ..OOOOoo.OOOOOO..Oooooo.OOOOOo..OoooXXXOOOOOOOOOXXXoooO..oOOOOO.oooooO..OOOOOO.OOOOO+.       ",
"       ..OOOo...OOOOO...Oooo...OOOoo...OooX+++++++++++++++XooO...ooOOO...oooO...OOOOO...OOO+.       ",
"       ..ooo.oo.OOO..o..ooo.oo.ooo..O..oXX+++++++++++++++++XXO..o..ooo.oo.ooo..o..OOO.oo.OOO.       ",
"       ..ooo.oo.OOO..o..ooo.oo.ooo..O..oXX+++++++++++++++++XXO..o..ooo.oo.ooo..o..OOO.oo.OOO.       ",
"         ...oooo...OOooo...Oooo...OOOOOX+++++XXXXXXXXXXX+++++XoooOO...oooO...oooOO...oooo...        ",
"       ..Oooooo.OOOOOo..OOOOoo.OOOOOOXX++++XX@@@@@@@@@@@XX++++XXoOOOOO.ooOOOO..oOOOOO.oooooO.       ",
"       ..Oooooo.OOOOOo..OOOOoo.OOOOOOXX++++XX@@@@@@@@@@@XX++++XXoOOOOO.ooOOOO..oOOOOO.oooooO.       ",
"       ..Oooooo.OOOOOo..OOOOoo.OOOOOX+++++X@@@@@@@@@@@@@@@X+++++XOOOOO.ooOOOO..oOOOOO.oooooO.       ",
"       ..Oooo...OOOoo...OOOo...OOOXX++++XX@@@###OOOOOOO#@@@XX++++XXOOO...oOOO...ooOOO...oooO.       ",
"       ..Oooo...OOOoo...OOOo...OOOXX++++XX@@@###OOOOOOO#@@@XX++++XXOOO...oOOO...ooOOO...oooO.       ",
"       ..ooo.OO.ooo..O..ooo.oo.OOX+++++X+++++OOO+++++++OOO+++X+++++Xoo.OO.ooo..O..ooo.oo.ooo.       ",
"         ...OOOO...OOOOO...OoooXX++++XX@@@#XX+++++++++++++X@@@XX++++XXOOOO...OOOOO...oooO...        ",
"         ...OOOO...OOOOO...OoooXX++++XX@@@#XX+++++++++++++X@@@XX++++XXOOOO...OOOOO...oooO...        ",
"       ..+OOOOO.++OOOO..OOOOooX+++++X@@@###XX++++XXXX+++++X##@@@X+++++XOOOOOO..OOOO++.ooOOOO.       ",
"       ..+OOOOO.++OOOO..OOOOXX++++XX@@@###X+++++XXXXXXX++++XX#@@@XX++++XXOOOO..OOOO++.ooOOOO.       ",
"       ..+OOOOO.++OOOO..OOOOXX++++XX@@@###X+++++XXXXXXX++++XX#@@@XX++++XXOOOO..OOOO++.ooOOOO.       ",
"       ..+OOO...++OOO...OOOX+++++X+++++@@@X+++XXXXXXXXXX+++XX@+++++X+++++XOOO...OOO++...oOOO.       ",
"       ..OOO.oo.OOO..o..oXX++++XX@@@######X+++XXXXXXXXXX+++XX####@@@XX++++XXO..o..OOO.oo.ooo.       ",
"       ..OOO.oo.OOO..o..oXX++++XX@@@######X+++XXXXXXXXXX+++XX####@@@XX++++XXO..o..OOO.oo.ooo.       ",
"         ...Oooo...oooooX+++++X@@@########X+++XXXXXXXXXX+++XX######@@@X+++++Xooooo...oooo...        ",
"       ..OOOOoo.ooooooXX++++XX@@@#########@XX+++XXXXXXX+++X@@#######@@@XX++++XXoooooo.oooooo.       ",
"       ..OOOOoo.ooooooXX++++XX@@@#########@XX+++XXXXXXX+++X@@#######@@@XX++++XXoooooo.oooooo.       ",
"       ..OOOOoo.oooooX+++++X+++++@@@@@@@@@@XX++++XXXX+++++X@@@@@@@@@+++++X+++++Xooooo.oooooo.       ",
"       ..OOOo...oooXX++++XX@@@#############@@XXX+++++++XXX@############@@@XX++++XXooo...oooo.       ",
"       ..OOOo...oooXX++++XX@@@#############@@XXX+++++++XXX@############@@@XX++++XXooo...oooo.       ",
"       ..ooo.OOo..X+++++X@@@#################@@@XXXXXXX@@@###############@@@X+++++X..OOO.ooo.       ",
"         ...OOOoXX++++XX@@@#####################@@@@@@@###################@@@XX++++XXOOOO...        ",
"         ...OOOoXX++++XX@@@#####################@@@@@@@###################@@@XX++++XXOOOO...        ",
"       ..OOOOOOX+++++X+++@@@@@@@@@@@@@@XXXXXXXXXXXXXXXXXXXXXXX@@@@@@@@@@@@+++++X+++++XOOOOOO.       ",
"       ..OOOOXX++++XX@@@############@XX+++++++++++++++++++++++XX@############@@@XX++++XXOOOO.       ",
"       ..oooX+++++X++@############@@X+++++++++++++++++++++++++++X@@############@++X+++++Xooo.       ",
"       ..oooX+++++X++@############@@X+++++++++++++++++++++++++++X@@############@++X+++++Xooo.       ",
"         .XX++++XX@++@############@@X+++++++++++++++++++++++++++X@@############@++@XX++++XX.        ",
"          XX+++X@@@++@@@@@@@@@@@@@@@X+++++XXXXXXXXXXXXXXXXX+++++X@@@@@@@@@@@@@@@++@@@X+++XX         ",
"          XX+++X@@@++@@@@@@@@@@@@@@@X+++++XXXXXXXXXXXXXXXXX+++++X@@@@@@@@@@@@@@@++@@@X+++XX         ",
"            XXXX@@#++@############@@X+++XXoooooooooooooooooXX+++X@@############@++#@@XXXX           ",
"               X###++@############@@X+++XXoooO..........oooXX+++X@@############@++###X              ",
"               X###++@############@@X+++XXoooO..........oooXX+++X@@############@++###X              ",
"               X###++@############@@X+++XXOoo.XXXX..XXXX..OXX+++X@@############@++###X              ",
"                XX+##+@@@@@@@@@@@@@@X+++XXOoo.XXXXooXXXX..OXX+++X@@@@@@@@@@@@@@+##+XX               ",
"                XX+##+@@@@@@@@@@@@@@X+++XXOoo.XXXXooXXXX..OXX+++X@@@@@@@@@@@@@@+##+XX               ",
"                XX###+@@##########@@X+++XXOoo...ooooooo...OXX+++X@@##########@@+###XX               ",
"                XX#@@+@@##########@@X+++XXOoo.XXXX..XXXX..OXX+++X@@##########@@+##@XX               ",
"                XX#@@+@@##########@@X+++XXOoo.XXXX..XXXX..OXX+++X@@##########@@+##@XX               ",
"                XX@@@+@@##########@@X+++XXOoo.XXXX..XXXX..OXX+++X@@##########@@+@@@XX               ",
"                  X++@@@@@@@@@@@@@@@X+++XXOoo.............OXX+++X@@@@@@@@@@@@@@@++X                 ",
"                  X++@@@@@@@@@@@@@@@X+++XXOoo.............OXX+++X@@@@@@@@@@@@@@@++X                 ",
"                XX###+@@##########@@X+++XXOoooooooooooooooOXX+++X@@##########@@+###XX               ",
"                XX#@@+@@##########@@X+++XX@++OOOoOOOoOOOooOXX+++X@@##########@@+##@XX               ",
"                XX#@@+@@##########@@X+++XX@++OOOoOOOoOOOooOXX+++X@@##########@@+##@XX               ",
"                XX@@@+@@##########@@X+++XX+++OOOoOOOoOOOooOXX+++X@@##########@@+@@@XX               ",
"                  X+++@@@@@@@@@@@@@@X+++XXoooOOOoOOOoOOOooOXX+++X@@@@@@@@@@@@@@+++X                 ",
"                  X+++@@@@@@@@@@@@@@X+++XXoooOOOoOOOoOOOooOXX+++X@@@@@@@@@@@@@@+++X                 ",
"                  X###++@#########@@X+++XXOooOOOoOOOoOOOooOXX+++X@@#########@++###X                 ",
"                  X##@++@#########@@X+++XXOooOOOoOOOoOOOooOXX+++X@@#########@++#@@X                 ",
"                  X##@++@#########@@X+++XXOooOOOoOOOoOOOooOXX+++X@@#########@++#@@X                 ",
"                  X@@@++@#########@@X+++XXOooOOOoOOOoOOOooOXX+++X@@#########@++@@@X                 ",
"                   XXXXX@@@@@@@@@@@@X+++XX.................XX+++X@@@@@@@@@@@@XXXXX                  ",
"                   XXXXX@@@@@@@@@@@@X+++XX.................XX+++X@@@@@@@@@@@@XXXXX                  "
};
