/* XPM */
static char *result[] = {
/* columns rows colors chars-per-pixel */
"96 32 3 1 ",
"  c #B0905D",
". c #A6845D",
"X c #BD9964",
/* pixels */
"                                                                                                ",
"                                                                                                ",
"                                        ..                                                      ",
"                                        ..                                                      ",
"        ....    XX                              ....                    ..                      ",
"        ....    XX                              ....                    ..                      ",
"        ....                                    ....                                          ..",
"        ....                                    ....                                          ..",
"                        ....                                XX    ....                XXXX      ",
"                        ....                                XX    ....                XXXX      ",
"                        ....                                      ....                XXXX      ",
"                        ....                                      ....                XXXX      ",
"                                      XXXX                                                      ",
"                                      XXXX                                                      ",
"                    XX                XXXX                                                      ",
"                    XX                XXXX                                                      ",
"                                                                                                ",
"                                                                                                ",
"        XXXX                                                                      ..            ",
"        XXXX                                                                      ..            ",
"        XXXX                                                          XX                        ",
"        XXXX                                                          XX                        ",
"                  ....                                                                          ",
"                  ....                                                                          ",
"                  ....      ....                    XX                                          ",
"                  ....      ....                    XX                                          ",
"              ..            ....                                      ....        XXXX          ",
"              ..            ....                                      ....        XXXX          ",
"                                                                      ....        XXXX          ",
"                                                                      ....        XXXX          ",
"                                                                                                ",
"                                                                                                "
};
