/* XPM */
static char *_f572dc98eb34243e62d2bfe0ebd6d12jmPPRrRP6zJCn9Gk[] = {
/* columns rows colors chars-per-pixel */
"100 100 8 1 ",
"  c None",
". c #573B38",
"X c #633B41",
"o c #704C44",
"O c #AE625D",
"+ c #CA8A52",
"@ c #CBAE93",
"# c #D9C4A5",
/* pixels */
"                                                                                                    ",
"                                                                                                    ",
"                                                                                                    ",
"                                                                                                    ",
"                                                                                                    ",
"                                                                                                    ",
"                                                                                                    ",
"                                                                                                    ",
"                                                                                                    ",
"                                                                                                    ",
"                                                                                                    ",
"                                                                                                    ",
"                                                                                                    ",
"                                                                                                    ",
"                                                                                                    ",
"                                                                                                    ",
"                                                                                                    ",
"                                                                                                    ",
"                                                                                                    ",
"                                                                                                    ",
"                                                                                                    ",
"                                                                                                    ",
"                                                                                                    ",
"                                                                                                    ",
"                                                                                                    ",
"                                                                                                    ",
"                                                                                                    ",
"                                                                                                    ",
"                                                                                                    ",
"                                                                                                    ",
"                                                                                                    ",
"                                                                                                    ",
"                                                                                                    ",
"                                                                                                    ",
"                                                                                                    ",
"                                                                                                    ",
"                                                                                                    ",
"                                                                                                    ",
"                                                                                                    ",
"                                                                                                    ",
"                                                                                                    ",
"                                                                                                    ",
"                                                                                                    ",
"                                                                                                    ",
"                                                                                                    ",
"                                                                                                    ",
"                                                                                                    ",
"                                                                                                    ",
"                                                                                                    ",
"                                                                                                    ",
"                                                                                                    ",
"                                                                                                    ",
"                                                                                                    ",
"                                                                                                    ",
"                                                 XXX  XXX                                           ",
"                                                 XXX  XXX                                           ",
"                                                 XXX  XXX                                           ",
"                                               XXOOOXXOOOXX                                         ",
"                                               XXOOOXXOOOXX                                         ",
"                                               oooooOOOOOXX                                         ",
"                                               oooooOOOOOXX                                         ",
"                                               oooooOOOOOXX                                         ",
"                                            ooo@@@@@##OOOXXooo                                      ",
"                                            ooo@@@@@##OOOXXooo                                      ",
"                                            ooo@@@@@##OOOXXooo                                      ",
"                                            ooo@@#############ooo                                   ",
"                                            ooo@@#############ooo                                   ",
"                                         ooo@@@#######...#####...                                   ",
"                                         ooo@@@#######...#####...                                   ",
"                                         ooo@@@#######...#####...                                   ",
"                                         ooo###############+++###oo                                 ",
"                                         ooo###############+++###oo                                 ",
"                                       oo@@@###OO##########OOO###@@ooo                              ",
"                                       oo@@@###OO##########OOO###@@ooo                              ",
"                                       oo@@@###OO##########OOO###@@ooo                              ",
"                                       oo@@@@@@OO################@@ooo                              ",
"                                       oo@@@@@@OO################@@ooo                              ",
"                                         oooooo@@@@@##########@@@oo                                 ",
"                                         oooooo@@@@@##########@@@oo                                 ",
"                                         oooooo@@@@@##########@@@oo                                 ",
"                                         ...@@@@@@@@@@@@@@@@@@ooo                                   ",
"                                         ...@@@@@@@@@@@@@@@@@@ooo                                   ",
"                                         ...@@@@@@@@@@@@@@@@@@ooo                                   ",
"                                            ...++........++...                                      ",
"                                            ...++........++...                                      ",
"                                                                                                    ",
"                                                                                                    ",
"                                                                                                    ",
"                                                                                                    ",
"                                                                                                    ",
"                                                                                                    ",
"                                                                                                    ",
"                                                                                                    ",
"                                                                                                    ",
"                                                                                                    ",
"                                                                                                    ",
"                                                                                                    ",
"                                                                                                    ",
"                                                                                                    ",
"                                                                                                    "
};
