/* XPM */
static char *result[] = {
/* columns rows colors chars-per-pixel */
"100 100 8 1 ",
"  c #2F2F2E",
". c #3B3B39",
"X c #4F4F4E",
"o c #9D5021",
"O c #D67941",
"+ c gray72",
"@ c white",
"# c None",
/* pixels */
"####################################################################################################",
"####################################################################################################",
"####################################################################################################",
"####################################################################################################",
"####################################################################################################",
"####################################################################################################",
"####################################################################################################",
"####################################################################################################",
"####################################################################################################",
"####################################################################################################",
"####################################################################################################",
"####################################################################################################",
"####################################################################################################",
"####################################################################################################",
"####################################################################################################",
"####################################################################################################",
"####################################################################################################",
"####################################################################################################",
"####################################################################################################",
"####################################################################################################",
"####################################################################################################",
"####################################################################################################",
"####################################################################################################",
"####################################################################################################",
"####################################################################################################",
"####################################################################################################",
"####################################################################################################",
"####################################################################################################",
"####################################################################################################",
"####################################################################################################",
"####################################################################################################",
"####################################################################################################",
"####################################################################################################",
"####################################################################################################",
"####################################################################################################",
"####################################################################################################",
"####################################################################################################",
"####################################################################################################",
"####################################################################################################",
"####################################################################################################",
"####################################################################################################",
"####################################################################################################",
"####################################################################################################",
"####################################################################################################",
"####################################################################################################",
"####################################################################################################",
"####################################################################################################",
"####################################################################################################",
"####################################################################################################",
"####################################################################################################",
"####################################################################################################",
"####################################################################################################",
"####################################################################################################",
"####################################################################################################",
"####################################################################################################",
"####################################################################################################",
"####################################################################################################",
"##########################################################     #####################################",
"##########################################################     #####################################",
"##########################################################     #####################################",
"##########################################################     #####################################",
"#######################################################   oo   #####       #########################",
"#######################################################   oo   #####       #########################",
"#######################################################   oo   #####       #########################",
"#####################################################  ooo@@   ##   ooOOO  #########################",
"#####################################################  ooo@@   ##   ooOOO  #########################",
"################################  ###################  ooo               ###########################",
"################################  ###################  ooo               ###########################",
"################################  ###################  ooo               ###########################",
"#############################   ++   ################  oooOOOOOOOOOOOO   ###########################",
"#############################   ++   ################  oooOOOOOOOOOOOO   ###########################",
"#############################   ++   ################  oooOOOOOOOOOOOO   ###########################",
"#########################    +++@@   ################  ooo  oooooooo     ###########################",
"#########################    +++@@   ################  ooo  oooooooo     ###########################",
"#########################    ooo@@   ############    oooooOOOOO     OOOOO  #########################",
"#########################    ooo@@   ############    oooooOOOOO     OOOOO  #########################",
"#########################    ooo@@   ############    oooooOOOOO     OOOOO  #########################",
"#########################    oooOOOOO  ##########    +++++@@@@@@@@@@@@@@@  #########################",
"#########################    oooOOOOO  ##########    +++++@@@@@@@@@@@@@@@  #########################",
"#########################    oooOOOOOOO                +++@@@@@@@@@@@@   ###########################",
"#########################    oooOOOOOOO                +++@@@@@@@@@@@@   ###########################",
"#########################    oooOOOOOOO                +++@@@@@@@@@@@@   ###########################",
"#########################    oooOOOOOoo   ooooooooooooo               ##############################",
"#########################    oooOOOOOoo   ooooooooooooo               ##############################",
"#########################    oooOOOOOoo   ooooooooooooo               ##############################",
"#############################   ooooo  ooooooooooOOOOOOOOOOO@@@@@   ################################",
"#############################   ooooo  ooooooooooOOOOOOOOOOO@@@@@   ################################",
"################################       ooooooooOOOOOOOOooo+++++     ################################",
"################################       ooooooooOOOOOOOOooo+++++     ################################",
"################################       ooooooooOOOOOOOOooo+++++     ################################",
"#####################################  ooo           OO        oo   ################################",
"#####################################  ooo           OO        oo   ################################",
"#####################################  ...  ...      XX   ##   XX   ################################",
"#####################################  ...  ...      XX   ##   XX   ################################",
"#####################################  ...  ...      XX   ##   XX   ################################",
"#####################################     ##   ######     #####     ################################",
"#####################################     ##   ######     #####     ################################",
"####################################################################################################",
"####################################################################################################",
"####################################################################################################"
};
