/* XPM */
static char *bca07fc9bf5942c3c103a25941e4e1b76DPX7cOzL6T6tJhP[] = {
/* columns rows colors chars-per-pixel */
"100 100 8 1 ",
"  c None",
". c #573C39",
"X c #633B41",
"o c #704C44",
"O c #AC635D",
"+ c #C98952",
"@ c #CBAE93",
"# c #D9C4A5",
/* pixels */
"                                                                                                    ",
"                                                                                                    ",
"                                                                                                    ",
"                                                                                                    ",
"                                                                                                    ",
"                                                                                                    ",
"                                                                                                    ",
"                                                                                                    ",
"                                                                                                    ",
"                                                                                                    ",
"                                                                                                    ",
"                                                                                                    ",
"                                                                                                    ",
"                                                                                                    ",
"                                                                                                    ",
"                                                                                                    ",
"                                                                                                    ",
"                                                                                                    ",
"                                                                                                    ",
"                                                                                                    ",
"                                                                                                    ",
"                                                                                                    ",
"                                                                                                    ",
"                                                                                                    ",
"                                                                                                    ",
"                                                                                                    ",
"                                                                                                    ",
"                                                                                                    ",
"                                                                                                    ",
"                                                                                                    ",
"                                                                                                    ",
"                                                                                                    ",
"                                                                                                    ",
"                                                                                                    ",
"                                                                                                    ",
"                                                                                                    ",
"                                                                                                    ",
"                                                                                                    ",
"                                                                                                    ",
"                                                                                                    ",
"                                                                                                    ",
"                                                                                                    ",
"                                                                                                    ",
"                                                                                                    ",
"                                                                                                    ",
"                                                                                                    ",
"                                                                                                    ",
"                                                                                                    ",
"                                                                                                    ",
"                                                                                                    ",
"                                                                                                    ",
"                                                                                                    ",
"                                                                                                    ",
"                                                                                                    ",
"                                                                                                    ",
"                                                                                                    ",
"                                                                                                    ",
"                                                                                                    ",
"                                            XXX   XXX                                               ",
"                                            XXX   XXX                                               ",
"                                            XXX   XXX                                               ",
"                                            XXX   XXX                                               ",
"                                         XXXOOOXXXOOOXXX                                            ",
"                                         XXXOOOXXXOOOXXX                                            ",
"                                         XXXOOOXXXOOOXXX                                            ",
"                                         ooooooOOOOOOXXX                                            ",
"                                         ooooooOOOOOOXXX                                            ",
"                                         ooooooOOOOOOXXX                                            ",
"                                      ooo@@@@@@###OOOXXXooo                                         ",
"                                      ooo@@@@@@###OOOXXXooo                                         ",
"                                      ooo@@@@@@###OOOXXXooo                                         ",
"                                      ooo@@@###############ooo                                      ",
"                                      ooo@@@###############ooo                                      ",
"                                      ooo@@@###############ooo                                      ",
"                                   ooo@@@#########...######...                                      ",
"                                   ooo@@@#########...######...                                      ",
"                                   ooo@@@#########...######...                                      ",
"                                   ooo##################+++###ooo                                   ",
"                                   ooo##################+++###ooo                                   ",
"                                   ooo##################+++###ooo                                   ",
"                               oooo@@@###OOO############OOO###@@@ooo                                ",
"                               oooo@@@###OOO############OOO###@@@ooo                                ",
"                               oooo@@@###OOO############OOO###@@@ooo                                ",
"                               oooo@@@@@@OOO##################@@@ooo                                ",
"                               oooo@@@@@@OOO##################@@@ooo                                ",
"                               oooo@@@@@@OOO##################@@@ooo                                ",
"                                   oooooo@@@@@@############@@@ooo                                   ",
"                                   oooooo@@@@@@############@@@ooo                                   ",
"                                   oooooo@@@@@@############@@@ooo                                   ",
"                                   ...@@@@@@@@@@@@@@@@@@@@@ooo                                      ",
"                                   ...@@@@@@@@@@@@@@@@@@@@@ooo                                      ",
"                                   ...@@@@@@@@@@@@@@@@@@@@@ooo                                      ",
"                                      ...+++.........+++...                                         ",
"                                      ...+++.........+++...                                         ",
"                                      ...+++.........+++...                                         ",
"                                                                                                    ",
"                                                                                                    ",
"                                                                                                    ",
"                                                                                                    ",
"                                                                                                    "
};
