/* XPM */
static char *fefb417c3e5b4a5f80bf56d04d0b8ffeqNE6qklibE18EX5d[] = {
/* columns rows colors chars-per-pixel */
"100 100 6 1 ",
"  c None",
". c #674C40",
"X c #7C5849",
"o c #8F6051",
"O c #B07F61",
"+ c #C2845F",
/* pixels */
"                                                                                                    ",
"                                                                                                    ",
"                                                                                                    ",
"                                                                                                    ",
"                                                                                                    ",
"                                                                                                    ",
"                                                                                                    ",
"                                                                                                    ",
"                                                                                                    ",
"                                                                                                    ",
"                                                                                                    ",
"                                                                                                    ",
"                                                                                                    ",
"                                                                                                    ",
"                                                                                                    ",
"                                 ............                                                       ",
"                                 ............                                                       ",
"                                 ............                                                       ",
"                                 ............                                                       ",
"                                 ............                                                       ",
"                                 ............                                                       ",
"                                 ............                                                       ",
"                          XXXXXXXooooooOOOOOO......                                                 ",
"                          XXXXXXXooooooOOOOOO......                                                 ",
"                          XXXXXXXooooooOOOOOO......                                                 ",
"                          XXXXXXXooooooOOOOOO......                                                 ",
"                          XXXXXXXooooooOOOOOO......                                                 ",
"                          XXXXXXXooooooOOOOOO......                                                 ",
"                          XXXXXXXOOOOOO++++++......      XXXXXXXXXXXXXXXXXX                         ",
"                          XXXXXXXOOOOOO++++++......      XXXXXXXXXXXXXXXXXX                         ",
"                          XXXXXXXOOOOOO++++++......      XXXXXXXXXXXXXXXXXX                         ",
"                          XXXXXXXOOOOOO++++++......      XXXXXXXXXXXXXXXXXX                         ",
"                          XXXXXXXOOOOOO++++++......      XXXXXXXXXXXXXXXXXX                         ",
"                          XXXXXXXOOOOOO++++++......      XXXXXXXXXXXXXXXXXX                         ",
"                                 XXXXXXXXXXXXXXXXXX      XXXXXX++++++OOOOOOXXXXXX                   ",
"                                 XXXXXXXXXXXXXXXXXX      XXXXXX++++++OOOOOOXXXXXX                   ",
"                                 XXXXXXXXXXXXXXXXXX      XXXXXX++++++OOOOOOXXXXXX                   ",
"                                 XXXXXXXXXXXXXXXXXX      XXXXXX++++++OOOOOOXXXXXX                   ",
"                                 XXXXXXXXXXXXXXXXXX      XXXXXX++++++OOOOOOXXXXXX                   ",
"                                 XXXXXXXXXXXXXXXXXX      XXXXXX++++++OOOOOOXXXXXX                   ",
"                                                         ......OOOOOOooooooXXXXXX                   ",
"                                                         ......OOOOOOooooooXXXXXX                   ",
"                                                         ......OOOOOOooooooXXXXXX                   ",
"                                                         ......OOOOOOooooooXXXXXX                   ",
"                                                         ......OOOOOOooooooXXXXXX                   ",
"                                                         ......OOOOOOooooooXXXXXX                   ",
"                                                               ............                         ",
"                                                               ............                         ",
"                                                               ............                         ",
"                                                               ............                         ",
"                                                               ............                         ",
"                                                               ............                         ",
"                                                                                                    ",
"                                                                                                    ",
"                                                                                                    ",
"                                                                                                    ",
"                                                                                                    ",
"                                                                                                    ",
"                                       XXXXXXXXXXXXXXXXXX                                           ",
"                                       XXXXXXXXXXXXXXXXXX                                           ",
"                                       XXXXXXXXXXXXXXXXXX                                           ",
"                                       XXXXXXXXXXXXXXXXXX                                           ",
"                                       XXXXXXXXXXXXXXXXXX                                           ",
"                                       XXXXXXXXXXXXXXXXXX                                           ",
"                                 XXXXXXOOOOOO++++++......                                           ",
"                                 XXXXXXOOOOOO++++++......                                           ",
"                                 XXXXXXOOOOOO++++++......                                           ",
"                                 XXXXXXOOOOOO++++++......                                           ",
"                                 XXXXXXOOOOOO++++++......                                           ",
"                                 XXXXXXOOOOOO++++++......                                           ",
"                                 XXXXXXooooooOOOOOO......                                           ",
"                                 XXXXXXooooooOOOOOO......                                           ",
"                                 XXXXXXooooooOOOOOO......                                           ",
"                                 XXXXXXooooooOOOOOO......                                           ",
"                                 XXXXXXooooooOOOOOO......                                           ",
"                                 XXXXXXooooooOOOOOO......                                           ",
"                                       ............                                                 ",
"                                       ............                                                 ",
"                                       ............                                                 ",
"                                       ............                                                 ",
"                                       ............                                                 ",
"                                       ............                                                 ",
"                                                                                                    ",
"                                                                                                    ",
"                                                                                                    ",
"                                                                                                    ",
"                                                                                                    ",
"                                                                                                    ",
"                                                                                                    ",
"                                                                                                    ",
"                                                                                                    ",
"                                                                                                    ",
"                                                                                                    ",
"                                                                                                    ",
"                                                                                                    ",
"                                                                                                    ",
"                                                                                                    ",
"                                                                                                    ",
"                                                                                                    ",
"                                                                                                    "
};
