/* XPM */
static char/*ca8e73d5f9cb4670ad3f80273efacbeclMbxRnqwAMKhbcWv[] = {
/* columns rows colors chars-per-pixel */
"100 100 5 1 ",
"/ c #83924C",
". c #B0905D",
"X c #98A154",
"o c #677A43",
"O c #9E7E57",
/* pixels */
"....................................................................................................",
"....................................................................................................",
"....................................................................................................",
"....................................................................................................",
"....................................................................................................",
"....................................OOOO...............OOOO.........................................",
"....................................OOOO...............OOOO.........................................",
"..............................OOOOOOooooOO......OOOOOOOooooOO..OOOO..OOOO...........................",
"..............................OOOOOOooooOO......OOOOOOOooooOO..OOOO..OOOO...........................",
".......................OOOOOOOooooooXXXXooOOOOOOoooooooXXXXooOOooooOOooooOOO........................",
".......................OOOOOOOooooooXXXXooOOOOOOoooooooXXXXooOOooooOOooooOOO........................",
".....................OOoooooooXXXXooXXXXooooooooXXXXXooXXXXXXooXXXXooXXXXoooOO......................",
".....................OOoooooooXXXXooXXXXooooooooXXXXXooXXXXXXooXXXXooXXXXoooOO......................",
"...................OOooXXXXXooXXXX//ooXXooXXXXooXXXXX//ooXXXX//XXXX//XXXXoooooOOOOOO................",
"...................OOooXXXXXooXXXX//ooXXooXXXXooXXXXX//ooXXXX//XXXX//XXXXoooooOOOOOO................",
".................OOooooXXXXX////XX////////XXXX//XXX//XXXX////////XX//XXooXXXXXooooooOO..............",
".................OOooooXXXXX////XX////////XXXX//XXX//XXXX////////XX//XXooXXXXXooooooOO..............",
"...............OOooXXXXoooXX//////////////XX/////////XXXX////////////////XXXXXooXXXXooOO............",
"...............OOooXXXXoooXX//////////////XX/////////XXXX////////////////XXXXXooXXXXooOO............",
".............OOooooXXXX////////////////////////////////XX////////////////XXX//XXXXXXooOO............",
".............OOooooXXXX////////////////////////////////XX////////////////XXX//XXXXXXooOO............",
"...........OOooXXXXooXX///////////////////////////////////////////////////////////ooooOO............",
"...........OOooXXXXooXX///////////////////////////////////////////////////////////ooooOO............",
"...........OOooXXXXXX///////////////////////////////////////////////////////////XXXXXXooOO..........",
"...........OOooXXXXXX///////////////////////////////////////////////////////////XXXXXXooOO..........",
"...........OOooXXXXXX///////////////////////////////////////////////////////////XXXXXXooOO..........",
"...........OOoooooo///////////////////////////////////////////////////////////////XXXXooOO..........",
"...........OOoooooo///////////////////////////////////////////////////////////////XXXXooOO..........",
".........OOooXXXXXX/////////////////////////////////////////////////////////////////ooOO............",
".........OOooXXXXXX/////////////////////////////////////////////////////////////////ooOO............",
".........OOooXXXXoo/////////////////////////////////////////////////////////////XXXXXXoo............",
".........OOooXXXXoo/////////////////////////////////////////////////////////////XXXXXXoo............",
"...........OOoooo/////////////////////////////////////////////////////////////////XXXXoo............",
"...........OOoooo/////////////////////////////////////////////////////////////////XXXXoo............",
".........OOooXXXXXX///////////////////////////////////////////////////////////////ooooOO............",
".........OOooXXXXXX///////////////////////////////////////////////////////////////ooooOO............",
".........OOooXXXX////////////////////////////////////////////////////////XXXXX////XXXXooOO..........",
".........OOooXXXX////////////////////////////////////////////////////////XXXXX////XXXXooOO..........",
".........OOoooo////////////////////////////////////////////////////////XXXXXXX//XXXXXXooOO..........",
".........OOoooo////////////////////////////////////////////////////////XXXXXXX//XXXXXXooOO..........",
".......OOooXXXX///////////////////////////////////////////////////////////////////ooooOO............",
".......OOooXXXX///////////////////////////////////////////////////////////////////ooooOO............",
".......OOooXXXXXX/////////////////////////////////////////////////////////////XXXXXXooOO............",
".......OOooXXXXXX/////////////////////////////////////////////////////////////XXXXXXooOO............",
".........OOoooo/////////////////////////////////////////////////////////////////XXXXooOO............",
".........OOoooo/////////////////////////////////////////////////////////////////XXXXooOO............",
".........ooXXXX///////////////////////////////////////////////////////////////////ooooooOO..........",
".........ooXXXX///////////////////////////////////////////////////////////////////ooooooOO..........",
".....OOooooXXXXXX/////////////////////////////////////////////////////////////////XXXXXXoo..........",
".....OOooooXXXXXX/////////////////////////////////////////////////////////////////XXXXXXoo..........",
".....OOooooXXXXXX/////////////////////////////////////////////////////////////////XXXXXXoo..........",
".....ooXXXXoo///////////////////////////////////////////////////////////////////////XXXXoo..........",
".....ooXXXXoo///////////////////////////////////////////////////////////////////////XXXXoo..........",
".....ooXXXXXX//XXXXXX///////////////////////////////////////////////////////XXXXXX//ooooOO..........",
".....ooXXXXXX//XXXXXX///////////////////////////////////////////////////////XXXXXX//ooooOO..........",
".....OOoooo////XXXX///////////////////////////////////////////////////////////XXXXooXXXXooOO........",
".....OOoooo////XXXX///////////////////////////////////////////////////////////XXXXooXXXXooOO........",
".....OOooXXXXXX///////////////////////////////////////////////////////////////////XXXXXXooOO........",
".....OOooXXXXXX///////////////////////////////////////////////////////////////////XXXXXXooOO........",
".....OOooXXXX/////////////////////////////////////////////////////////////////////XXXXooOO..........",
".....OOooXXXX/////////////////////////////////////////////////////////////////////XXXXooOO..........",
".......OOooooXXXXXX/////////////////////////////////////////////////////////////////ooOO............",
".......OOooooXXXXXX/////////////////////////////////////////////////////////////////ooOO............",
".........OOooXXXX/////////////////////////////////////////////////////////////////XXXXooOO..........",
".........OOooXXXX/////////////////////////////////////////////////////////////////XXXXooOO..........",
"...........OOoooo///////////////////////////////////////////////////////////////XXXXXXooOO..........",
"...........OOoooo///////////////////////////////////////////////////////////////XXXXXXooOO..........",
".........OOooXXXXXX///////////////////////////////////////////////////////////////ooooOO............",
".........OOooXXXXXX///////////////////////////////////////////////////////////////ooooOO............",
".........OOooXXXX///////////////////////////////////////////////////////////////XXXXXXooOO..........",
".........OOooXXXX///////////////////////////////////////////////////////////////XXXXXXooOO..........",
".........OOoooo///////////////////////////////////////////////////////////////////XXXXooOO..........",
".........OOoooo///////////////////////////////////////////////////////////////////XXXXooOO..........",
".......OOooXXXX///////////////////////////////////////////////////////////////////ooooOO............",
".......OOooXXXX///////////////////////////////////////////////////////////////////ooooOO............",
".......OOooXXXX///////////////////////////////////////////////////////////////////ooooOO............",
".......OOooXXXXXX///////////////////////////////////////////////////////////////XXXXXXooOO..........",
".......OOooXXXXXX///////////////////////////////////////////////////////////////XXXXXXooOO..........",
".........OOoooooo///////////////////////XX//////////////////////////////////XXXXooXXXXooOO..........",
".........OOoooooo///////////////////////XX//////////////////////////////////XXXXooXXXXooOO..........",
"...........OOooXXXXXX///////////////////XXXX///////////XX///////////////////XXXXXXooooOO............",
"...........OOooXXXXXX///////////////////XXXX///////////XX///////////////////XXXXXXooooOO............",
"...........OOooXXXXooXXXXX//////////////XXXX/////////XXXX/////////////////////XXXXooOO..............",
"...........OOooXXXXooXXXXX//////////////XXXX/////////XXXX/////////////////////XXXXooOO..............",
".............OOooooXXXXXXX//////XX//////////////XXX//XXXX////////XX/////////XXooooOO................",
".............OOooooXXXXXXX//////XX//////////////XXX//XXXX////////XX/////////XXooooOO................",
"...............OOooXXXXoooXX//XXXXooXXoo////XX//XXXXX//ooXXXX//XXXX//XX/////XXXXooOO................",
"...............OOooXXXXoooXX//XXXXooXXoo////XX//XXXXX//ooXXXX//XXXX//XX/////XXXXooOO................",
".................OOooooXXXXXooXXXXooXXXXooXXXXooXXXXXooXXXXXXooXXXXooXXXXoooXXXXooOO................",
".................OOooooXXXXXooXXXXooXXXXooXXXXooXXXXXooXXXXXXooXXXXooXXXXoooXXXXooOO................",
"...................OOooXXXXXooooooooXXXXooXXXXoooooooooXXXXooOOooooooXXXXoooooooOO..................",
"...................OOooXXXXXooooooooXXXXooXXXXoooooooooXXXXooOOooooooXXXXoooooooOO..................",
".....................OOoooooOOOOOOOOooooOOooooOOOOOOOOOooooOO..OOOOOOooooOOOOOOO....................",
".....................OOoooooOOOOOOOOooooOOooooOOOOOOOOOooooOO..OOOOOOooooOOOOOOO....................",
".......................OOOOO........OOOO..OOOO.........OOOO........OOOOOO...........................",
".......................OOOOO........OOOO..OOOO.........OOOO........OOOOOO...........................",
"....................................................................................................",
"....................................................................................................",
"....................................................................................................",
"...................................................................................................."
};
