/* XPM */
static char *result[] = {
/* columns rows colors chars-per-pixel */
"100 100 5 1 ",
"  c #83924C",
". c #B0905D",
"X c #98A154",
"o c #677A43",
"O c #9E7E57",
/* pixels */
".....................................OOOO.................OOOO......................................",
".....................................OOOO.................OOOO......................................",
"..............................OOOOOOOooooOOO......OOOOOOOOooooOOO..OOOO..OOOOO......................",
"..............................OOOOOOOooooOOO......OOOOOOOOooooOOO..OOOO..OOOOO......................",
".......................OOOOOOOoooooooXXXXoooOOOOOOooooooooXXXXoooOOooooOOoooooOOO...................",
".......................OOOOOOOoooooooXXXXoooOOOOOOooooooooXXXXoooOOooooOOoooooOOO...................",
".......................OOOOOOOoooooooXXXXoooOOOOOOooooooooXXXXoooOOooooOOoooooOOO...................",
".....................OOoooooooXXXXXooXXXXoooooooooXXXXXXooXXXXXXXooXXXXooXXXXXoooOO.................",
".....................OOoooooooXXXXXooXXXXoooooooooXXXXXXooXXXXXXXooXXXXooXXXXXoooOO.................",
"..................OOOooXXXXXooXXXXX  ooXXoooXXXXooXXXXXX  ooXXXXX  XXXX  XXXXXoooooOOOOOOO..........",
"..................OOOooXXXXXooXXXXX  ooXXoooXXXXooXXXXXX  ooXXXXX  XXXX  XXXXXoooooOOOOOOO..........",
"................OOoooooXXXXX     XX         XXXX  XXXX  XXXX         XX  XXXooXXXXXoooooooOO........",
"................OOoooooXXXXX     XX         XXXX  XXXX  XXXX         XX  XXXooXXXXXoooooooOO........",
"..............OOooXXXXXoooXX                XX          XXXX                  XXXXXooXXXXXooOO......",
"..............OOooXXXXXoooXX                XX          XXXX                  XXXXXooXXXXXooOO......",
"............OOooooXXXXX                                   XX                  XXX  XXXXXXXooOO......",
"............OOooooXXXXX                                   XX                  XXX  XXXXXXXooOO......",
"............OOooooXXXXX                                   XX                  XXX  XXXXXXXooOO......",
"..........OOooXXXXoooXX                                                                 ooooOO......",
"..........OOooXXXXoooXX                                                                 ooooOO......",
"..........OOooXXXXXXX                                                                XXXXXXXooOO....",
"..........OOooXXXXXXX                                                                XXXXXXXooOO....",
"..........OOooXXXXXXX                                                                XXXXXXXooOO....",
"..........OOoooooo                                                                      XXXXooOO....",
"..........OOoooooo                                                                      XXXXooOO....",
".......OOOooXXXXXX                                                                        ooOO......",
".......OOOooXXXXXX                                                                        ooOO......",
".......OOOooXXXXoo                                                                   XXXXXXXoo......",
".......OOOooXXXXoo                                                                   XXXXXXXoo......",
".......OOOooXXXXoo                                                                   XXXXXXXoo......",
"..........OOoooo                                                                        XXXXoo......",
"..........OOoooo                                                                        XXXXoo......",
".......OOOooXXXXXX                                                                      ooooOO......",
".......OOOooXXXXXX                                                                      ooooOO......",
".......OOOooXXXX                                                              XXXXX     XXXXooOO....",
".......OOOooXXXX                                                              XXXXX     XXXXooOO....",
".......OOOoooo                                                              XXXXXXX  XXXXXXXooOO....",
".......OOOoooo                                                              XXXXXXX  XXXXXXXooOO....",
".....OOoooXXXX                                                                          ooooOO......",
".....OOoooXXXX                                                                          ooooOO......",
".....OOoooXXXX                                                                          ooooOO......",
".....OOoooXXXXXX                                                                   XXXXXXXooOO......",
".....OOoooXXXXXX                                                                   XXXXXXXooOO......",
".......OOOoooo                                                                       XXXXXooOO......",
".......OOOoooo                                                                       XXXXXooOO......",
".......oooXXXX                                                                          ooooooOO....",
".......oooXXXX                                                                          ooooooOO....",
"...OOoooooXXXXXX                                                                        XXXXXXoo....",
"...OOoooooXXXXXX                                                                        XXXXXXoo....",
"...OOoooooXXXXXX                                                                        XXXXXXoo....",
"...OOoooooXXXXXX                                                                        XXXXXXoo....",
"...ooXXXXXoo                                                                              XXXXoo....",
"...ooXXXXXoo                                                                              XXXXoo....",
"...ooXXXXXXX  XXXXXXX                                                            XXXXXXX  ooooOO....",
"...ooXXXXXXX  XXXXXXX                                                            XXXXXXX  ooooOO....",
"...OOooooo    XXXX                                                                 XXXXXooXXXXooOOO.",
"...OOooooo    XXXX                                                                 XXXXXooXXXXooOOO.",
"...OOooXXXXXXX                                                                          XXXXXXooOOO.",
"...OOooXXXXXXX                                                                          XXXXXXooOOO.",
"...OOooXXXXX                                                                            XXXXooOO....",
"...OOooXXXXX                                                                            XXXXooOO....",
"...OOooXXXXX                                                                            XXXXooOO....",
".....OOoooooXXXXXX                                                                        ooOO......",
".....OOoooooXXXXXX                                                                        ooOO......",
".......OOOooXXXX                                                                        XXXXooOO....",
".......OOOooXXXX                                                                        XXXXooOO....",
"..........OOoooo                                                                     XXXXXXXooOO....",
"..........OOoooo                                                                     XXXXXXXooOO....",
".......OOOooXXXXXX                                                                      ooooOO......",
".......OOOooXXXXXX                                                                      ooooOO......",
".......OOOooXXXX                                                                     XXXXXXXooOO....",
".......OOOooXXXX                                                                     XXXXXXXooOO....",
".......OOOooXXXX                                                                     XXXXXXXooOO....",
".......OOOoooo                                                                          XXXXooOO....",
".......OOOoooo                                                                          XXXXooOO....",
".....OOoooXXXX                                                                          ooooOO......",
".....OOoooXXXX                                                                          ooooOO......",
".....OOoooXXXX                                                                          ooooOO......",
".....OOoooXXXXXX                                                                     XXXXXXXooOO....",
".....OOoooXXXXXX                                                                     XXXXXXXooOO....",
".......OOOoooooo                         XXX                                     XXXXoooXXXXooOO....",
".......OOOoooooo                         XXX                                     XXXXoooXXXXooOO....",
"..........OOooXXXXXXX                    XXXXX            XX                     XXXXXXXooooOO......",
"..........OOooXXXXXXX                    XXXXX            XX                     XXXXXXXooooOO......",
"..........OOooXXXXXXX                    XXXXX            XX                     XXXXXXXooooOO......",
"..........OOooXXXXoooXXXXX               XXXXX          XXXX                       XXXXXooOO........",
"..........OOooXXXXoooXXXXX               XXXXX          XXXX                       XXXXXooOO........",
"............OOooooXXXXXXXX       XX               XXXX  XXXX         XX          XXoooooOO..........",
"............OOooooXXXXXXXX       XX               XXXX  XXXX         XX          XXoooooOO..........",
"..............OOooXXXXXoooXX  XXXXXooXXoo     XX  XXXXXX  ooXXXXX  XXXX  XXX     XXXXoooOO..........",
"..............OOooXXXXXoooXX  XXXXXooXXoo     XX  XXXXXX  ooXXXXX  XXXX  XXX     XXXXoooOO..........",
"................OOoooooXXXXXooXXXXXooXXXXoooXXXXooXXXXXXooXXXXXXXooXXXXooXXXXXoooXXXXoooOO..........",
"................OOoooooXXXXXooXXXXXooXXXXoooXXXXooXXXXXXooXXXXXXXooXXXXooXXXXXoooXXXXoooOO..........",
"..................OOOooXXXXXoooooooooXXXXoooXXXXooooooooooXXXXoooOOooooooXXXXXoooooooOOO............",
"..................OOOooXXXXXoooooooooXXXXoooXXXXooooooooooXXXXoooOOooooooXXXXXoooooooOOO............",
"..................OOOooXXXXXoooooooooXXXXoooXXXXooooooooooXXXXoooOOooooooXXXXXoooooooOOO............",
".....................OOoooooOOOOOOOOOooooOOOooooOOOOOOOOOOooooOOO..OOOOOOoooooOOOOOOO...............",
".....................OOoooooOOOOOOOOOooooOOOooooOOOOOOOOOOooooOOO..OOOOOOoooooOOOOOOO...............",
".......................OOOOO.........OOOO...OOOO..........OOOO.........OOOOOOO......................",
".......................OOOOO.........OOOO...OOOO..........OOOO.........OOOOOOO......................"
};
