/* XPM */
static char *tree[] = {
/* columns rows colors chars-per-pixel */
"100 100 8 1 ",
"  c #2D3D2A",
". c #4D372D",
"X c #345335",
"o c #70553C",
"O c #466639",
"+ c #658C49",
"@ c #FBFBF9",
"# c None",
/* pixels */
"############################################OOOOOOOOOOOOO#########OOOOOO############################",
"############################################OOOOOOOOOOOOO#########OOOOOO############################",
"############################################OOOOOOOOOOOOO#########OOOOOO############################",
"############################################OOOOOOOOOOOOO#########OOOOOO############################",
"#########################OOOOOOO#########OOO+++++++++++++OOO###OOO++++++OOO#########################",
"#########################OOOOOOO#########OOO+++++++++++++OOO###OOO++++++OOO#########################",
"#########################OOOOOOO#########OOO+++++++++++++OOO###OOO++++++OOO#########################",
"######################OOO+++++++OOOOOOOOO+++++++++++++++++++OOO++++++++++++OOOO#####################",
"######################OOO+++++++OOOOOOOOO+++++++++++++++++++OOO++++++++++++OOOO#####################",
"######################OOO+++++++OOOOOOOOO+++++++++++++++++++OOO++++++++++++OOOO#####################",
"###################OOO+++++++++++++++++++++++++++++++++++++++++++++++++++++++++OOO##################",
"###################OOO+++++++++++++++++++++++++++++++++++++++++++++++++++++++++OOO##################",
"###################OOO+++++++++++++++++++++++++++++++++++++++++++++++++++++++++OOO##################",
"################OOO++++++++++++++++++++++++++++++++++++++++++++++++++++++++++++OOO##################",
"################OOO++++++++++++++++++++++++++++++++++++++++++++++++++++++++++++OOO##################",
"################OOO++++++++++++++++++++++++++++++++++++++++++++++++++++++++++++OOO##################",
"################OOO++++++++++++++++++++++++++++++++++++++++++++++++++++++++OOOO#####################",
"################OOO++++++++++++++++++++++++++++++++++++++++++++++++++++++++OOOO#####################",
"################OOO++++++++++++++++++++++++++++++++++++++++++++++++++++++++OOOO#####################",
"###################OOO+++++++++++++++++++++++++++++++++++++++++++++++++++++++++OOO##################",
"###################OOO+++++++++++++++++++++++++++++++++++++++++++++++++++++++++OOO##################",
"###################OOO+++++++++++++++++++++++++++++++++++++++++++++++++++++++++OOO##################",
"##########OOOOOOOOOOOOOOO+++++++++++++++++++++++++++++++++++++++++++++++++++++++++OOO###############",
"##########OOOOOOOOOOOOOOO+++++++++++++++++++++++++++++++++++++++++++++++++++++++++OOO###############",
"##########OOOOOOOOOOOOOOO+++++++++++++++++++++++++++++++++++++++++++++++++++++++++OOO###############",
"#######OOO++++++++++++OOO++++++++++++++++++++++++++++++++++++++++++++++++++++++++++++OOO############",
"#######OOO++++++++++++OOO++++++++++++++++++++++++++++++++++++++++++++++++++++++++++++OOO############",
"#######OOO++++++++++++OOO++++++++++++++++++++++++++++++++++++++++++++++++++++++++++++OOO############",
"#######OOO++++++++++++OOO++++++++++++++++++++++++++++++++++++++++++++++++++++++++++++OOO############",
"####OOO++++++++++++++++++OOOO++++++++++++++++++++++++++++++++++++++++++++++OOOO++++++OOO############",
"####OOO++++++++++++++++++OOOO++++++++++++++++++++++++++++++++++++++++++++++OOOO++++++OOO############",
"####OOO++++++++++++++++++OOOO++++++++++++++++++++++++++++++++++++++++++++++OOOO++++++OOO############",
"OOOO+++++++++++++++++++++OOOO+++++++++++++++++++++++++OOO++++++++++++++++++++++OOOOOO###############",
"OOOO+++++++++++++++++++++OOOO+++++++++++++++++++++++++OOO++++++++++++++++++++++OOOOOO###############",
"OOOO+++++++++++++++++++++OOOO+++++++++++++++++++++++++OOO++++++++++++++++++++++OOOOOO###############",
"OOOO++++++++++++++++++OOO++++++++++++++++++++++++++++++++OOO++++++++++++++++++++++OOOOOOOOO#########",
"OOOO++++++++++++++++++OOO++++++++++++++++++++++++++++++++OOO++++++++++++++++++++++OOOOOOOOO#########",
"OOOO++++++++++++++++++OOO++++++++++++++++++++++++++++++++OOO++++++++++++++++++++++OOOOOOOOO#########",
"OOOO+++++++++++++++++++++++++++++++++++++++++++++++++++++OOO++++++OOOOOO+++++++++++++++++++OOO######",
"OOOO+++++++++++++++++++++++++++++++++++++++++++++++++++++OOO++++++OOOOOO+++++++++++++++++++OOO######",
"OOOO+++++++++++++++++++++++++++++++++++++++++++++++++++++OOO++++++OOOOOO+++++++++++++++++++OOO######",
"OOOO++++++++++++++++++++++++++++++++++++++++OOO+++++++OOOOOOOOOOOO++++++OOO+++++++++++++++++++OOO###",
"OOOO++++++++++++++++++++++++++++++++++++++++OOO+++++++OOOOOOOOOOOO++++++OOO+++++++++++++++++++OOO###",
"OOOO++++++++++++++++++++++++++++++++++++++++OOO+++++++OOOOOOOOOOOO++++++OOO+++++++++++++++++++OOO###",
"####XXX++++++++++++++++++++++++++++++++++++++++OOOOOOO++++++OOO+++++++++OOOOOOO++++++++++++++++++OOO",
"####XXX++++++++++++++++++++++++++++++++++++++++OOOOOOO++++++OOO+++++++++OOOOOOO++++++++++++++++++OOO",
"####XXX++++++++++++++++++++++++++++++++++++++++OOOOOOO++++++OOO+++++++++OOOOOOO++++++++++++++++++OOO",
"#######XXX+++++++++++++++++++++++++OOO++++++OOOOOO+++++++++++++++++++++++++++++OOO++++++OOO++++++OOO",
"#######XXX+++++++++++++++++++++++++OOO++++++OOOOOO+++++++++++++++++++++++++++++OOO++++++OOO++++++OOO",
"#######XXX+++++++++++++++++++++++++OOO++++++OOOOOO+++++++++++++++++++++++++++++OOO++++++OOO++++++OOO",
"####XXX+++++++++++++++++++++++++++++++OOOOOO+++++++++++++++++++++++++++++++++++++++++++++++OOOXXX###",
"####XXX+++++++++++++++++++++++++++++++OOOOOO+++++++++++++++++++++++++++++++++++++++++++++++OOOXXX###",
"####XXX+++++++++++++++++++++++++++++++OOOOOO+++++++++++++++++++++++++++++++++++++++++++++++OOOXXX###",
"####XXX+++++++++++++++++++++++++++++++OOOOOO+++++++++++++++++++++++++++++++++++++++++++++++OOOXXX###",
"####XXX++++++++++++++++++++++++++++++++++XXXOOO+++++++++++++++++++++++++++++++++++++++++++++++XXX###",
"####XXX++++++++++++++++++++++++++++++++++XXXOOO+++++++++++++++++++++++++++++++++++++++++++++++XXX###",
"####XXX++++++++++++++++++++++++++++++++++XXXOOO+++++++++++++++++++++++++++++++++++++++++++++++XXX###",
"#######XXX++++++++++++OOOOOOO++++++++++++XXXXXX++++++++++OOO++++++++++++++++++++++++++++++++++XXX###",
"#######XXX++++++++++++OOOOOOO++++++++++++XXXXXX++++++++++OOO++++++++++++++++++++++++++++++++++XXX###",
"#######XXX++++++++++++OOOOOOO++++++++++++XXXXXX++++++++++OOO++++++++++++++++++++++++++++++++++XXX###",
"##########XXX++++++OOOOOO+++++++++++++XXXXXXOOO+++OOOO++++++OOO++++++++++++++++++++++OOO+++OOO   ###",
"##########XXX++++++OOOOOO+++++++++++++XXXXXXOOO+++OOOO++++++OOO++++++++++++++++++++++OOO+++OOO   ###",
"##########XXX++++++OOOOOO+++++++++++++XXXXXXOOO+++OOOO++++++OOO++++++++++++++++++++++OOO+++OOO   ###",
"##########   OOOOOOOOOOOOOOOO++++++XXXOOOOOOXXXOOOOOOO+++OOOOOO+++OOO++++++OOOO+++++++++OOOXXX   ###",
"##########   OOOOOOOOOOOOOOOO++++++XXXOOOOOOXXXOOOOOOO+++OOOOOO+++OOO++++++OOOO+++++++++OOOXXX   ###",
"##########   OOOOOOOOOOOOOOOO++++++XXXOOOOOOXXXOOOOOOO+++OOOOOO+++OOO++++++OOOO+++++++++OOOXXX   ###",
"#############   XXX+++OOOXXXXOOOOOOOOOOOOXXXXXXXXXOOOOXXXOOOOOOOOOOOO++++++OOOO+++OOOOOOXXX   ######",
"#############   XXX+++OOOXXXXOOOOOOOOOOOOXXXXXXXXXOOOOXXXOOOOOOOOOOOO++++++OOOO+++OOOOOOXXX   ######",
"#############   XXX+++OOOXXXXOOOOOOOOOOOOXXXXXXXXXOOOOXXXOOOOOOOOOOOO++++++OOOO+++OOOOOOXXX   ######",
"################   XXXXXXOOOOOOOXXXXXXOOOOOOXXXXXXXXXXOOOOOOOOOXXXOOO+++OOOOOOOOOOXXXXXX   #########",
"################   XXXXXXOOOOOOOXXXXXXOOOOOOXXXXXXXXXXOOOOOOOOOXXXOOO+++OOOOOOOOOOXXXXXX   #########",
"################   XXXXXXOOOOOOOXXXXXXOOOOOOXXXXXXXXXXOOOOOOOOOXXXOOO+++OOOOOOOOOOXXXXXX   #########",
"###################      XXXXXXXXXX   XXXOOO   OOOXXXXOOOOOOXXXOOOXXXOOOOOOXXXXOOOXXX   ############",
"###################      XXXXXXXXXX   XXXOOO   OOOXXXXOOOOOOXXXOOOXXXOOOOOOXXXXOOOXXX   ############",
"###################      XXXXXXXXXX   XXXOOO   OOOXXXXOOOOOOXXXOOOXXXOOOOOOXXXXOOOXXX   ############",
"#########################          ...      ...       XXXXXXOOOOOOXXXXXXOOOXXXX      ###############",
"#########################          ...      ...       XXXXXXOOOOOOXXXXXXOOOXXXX      ###############",
"#########################          ...      ...       XXXXXXOOOOOOXXXXXXOOOXXXX      ###############",
"#########################          ...      ...       XXXXXXOOOOOOXXXXXXOOOXXXX      ###############",
"###################################...oooooo......    OOOXXXOOO   OOOXXX       #####################",
"###################################...oooooo......    OOOXXXOOO   OOOXXX       #####################",
"###################################...oooooo......    OOOXXXOOO   OOOXXX       #####################",
"###################################......ooo...ooo....         ...      ############################",
"###################################......ooo...ooo....         ...      ############################",
"###################################......ooo...ooo....         ...      ############################",
"################@@@@@@@@@@@@@@@@@@@...oooooo...ooooooo............##################################",
"################@@@@@@@@@@@@@@@@@@@...oooooo...ooooooo............##################################",
"################@@@@@@@@@@@@@@@@@@@...oooooo...ooooooo............##################################",
"################@@@@@@@@@@@@@@@@............ooooooooooooooooooo......###############################",
"################@@@@@@@@@@@@@@@@............ooooooooooooooooooo......###############################",
"################@@@@@@@@@@@@@@@@............ooooooooooooooooooo......###############################",
"################@@@@@@@@@@@@@...ooooooooooooooooooooooooooooooooooooo...############################",
"################@@@@@@@@@@@@@...ooooooooooooooooooooooooooooooooooooo...############################",
"################@@@@@@@@@@@@@...ooooooooooooooooooooooooooooooooooooo...############################",
"################@@@@@@@@@....ooooooooo................oooooo...ooooooooo...#########################",
"################@@@@@@@@@....ooooooooo................oooooo...ooooooooo...#########################",
"################@@@@@@@@@....ooooooooo................oooooo...ooooooooo...#########################",
"################@@@@@@@@@ooooooo......@@@@@@@@@...oooooooooo.........oooooo#########################",
"################@@@@@@@@@ooooooo......@@@@@@@@@...oooooooooo.........oooooo#########################",
"################@@@@@@@@@ooooooo......@@@@@@@@@...oooooooooo.........oooooo#########################"
};
