/* XPM */
static char *result[] = {
/* columns rows colors chars-per-pixel */
"100 100 8 1 ",
"  c #263B31",
". c #294335",
"X c #32593D",
"o c #37633B",
"O c #42703C",
"+ c #A8794D",
"@ c #BA8656",
"# c None",
/* pixels */
"####################################################################################################",
"####################################################################################################",
"####################################################################################################",
"####################################################################################################",
"####################################################################################################",
"####################################################################################################",
"####################################################################################################",
"####################################################################################################",
"####################################################################################################",
"####################################################################################################",
"####################################################################################################",
"####################################################################################################",
"####################################################################################################",
"####################################################################################################",
"####################################################################################################",
"####################################################################################################",
"####################################################################################################",
"####################################################################################################",
"####################################################################################################",
"####################################################################################################",
"####################################################################################################",
"####################################################################################################",
"####################################################################################################",
"####################################################################################################",
"####################################################################################################",
"####################################################################################################",
"####################################################################################################",
"####################################################################################################",
"####################################################################################################",
"####################################################################################################",
"####################################################################################################",
"####################################################################################################",
"####################################################################################################",
"####################################################################################################",
"####################################################################################################",
"####################################################################################################",
"####################################################################################################",
"####################################################################################################",
"####################################################################################################",
"####################################################################################################",
"####################################################################################################",
"####################################################################################################",
"####################################################################################################",
"####################################################################################################",
"####################################################################################################",
"####################################################################################################",
"####################################################################################################",
"####################################################################################################",
"####################################################################################################",
"####################################################################################################",
"####################################################################################################",
"####################################################################################################",
"####################################################################################################",
"####################################################################################################",
"####################################################################################################",
"####################################################################################################",
"####################################################################################################",
"####################################################################################################",
"####################################################################################################",
"####################################################################################################",
"####################################################################################################",
"####################################################################################################",
"####################################################.....###########################################",
"####################################################.....###########################################",
"#######################################.....#######.OOOO.###########################################",
"#######################################.....#######.OOOO.###########################################",
"#######################################..Ooo..#####.ooOO....########################################",
"#######################################...oooo...##.oo..OOO ########################################",
"#######################################...oooo...##.oo..OOO ########################################",
"#####################################..OOoooXXXoo..XXXoooOO ########################################",
"#####################################..OOoooXXXoo..XXXoooOO ########################################",
"#####################################..OOO..oo.XXXXXXXXX   #########################################",
"#####################################.....OOoo.  XX ooooO  #########################################",
"#####################################.....OOoo.  XX ooooO  #########################################",
"#########################################.OOOO.  XX   OOO  #########################################",
"#########################################.OOOO.  XX   OOO  #########################################",
"#########################################.....#  XX ##     #########################################",
"##############################################+  XX ++##############################################",
"##############################################+  XX ++##############################################",
"############################################++@  XX @@++############################################",
"############################################++@  XX @@++############################################",
"############################################++@  XX @@++############################################",
"############################################+++@@@@@++++############################################",
"############################################+++@@@@@++++############################################",
"##############################################++++++++##############################################",
"####################################################################################################",
"####################################################################################################",
"####################################################################################################",
"####################################################################################################",
"####################################################################################################",
"####################################################################################################",
"####################################################################################################",
"####################################################################################################",
"####################################################################################################",
"####################################################################################################",
"####################################################################################################",
"####################################################################################################",
"####################################################################################################",
"####################################################################################################",
"####################################################################################################"
};
