/* XPM */
static char *result[] = {
/* columns rows colors chars-per-pixel */
"100 100 8 1 ",
"  c #263B31",
". c #294335",
"X c #33583A",
"o c #3B683B",
"O c #527743",
"+ c #AE7D50",
"@ c #748952",
"# c None",
/* pixels */
"####################################################################################################",
"####################################################################################################",
"####################################################################################################",
"####################################################################################################",
"####################################################################################################",
"####################################################################################################",
"####################################################################################################",
"####################################################################################################",
"####################################################################################################",
"####################################################################################################",
"####################################################################################################",
"####################################################################################################",
"####################################################################################################",
"####################################################################################################",
"####################################################################################################",
"####################################################################################################",
"####################################################################################################",
"####################################################################################################",
"####################################################################################################",
"####################################################################################################",
"####################################################################################################",
"####################################################################################################",
"####################################################################################################",
"####################################################################################################",
"####################################################################################################",
"####################################################################################################",
"####################################################################################################",
"####################################################################################################",
"####################################################################################################",
"####################################################################################################",
"####################################################################################################",
"####################################################################################################",
"####################################################################################################",
"####################################################################################################",
"####################################################################################################",
"####################################################################################################",
"####################################################################################################",
"####################################################################################################",
"####################################################################################################",
"####################################################################################################",
"####################################################################################################",
"####################################################################################################",
"####################################################################################################",
"####################################################################################################",
"####################################################################################################",
"####################################################################################################",
"####################################################################################################",
"####################################################################################################",
"####################################################################################################",
"####################################################################################################",
"####################################################################################################",
"####################################################################################################",
"####################################################################################################",
"####################################################################################################",
"####################################################################################################",
"####################################################################################################",
"####################################################################################################",
"####################################################################################################",
"####################################################################################################",
"####################################################################################################",
"####################################################################################################",
"####################################################.....###########################################",
"####################################################.....###########################################",
"#######################################.....#######.oooo.###########################################",
"#######################################.....#######.oooo.###########################################",
"#######################################..ooo..#####.oooo....########################################",
"#######################################...oooo...##.oo..ooo ########################################",
"#######################################...oooo...##.oo..ooo ########################################",
"#####################################..oooooXXXoo..XXXooooo ########################################",
"#####################################..OOo..oo.XXXXXXXXX   #########################################",
"#####################################..OOo..oo.XXXXXXXXX   #########################################",
"#####################################.....oooo.  XX ooooo  #########################################",
"#####################################.....oooo.  XX ooooo  #########################################",
"#########################################.OOoo.  XX   ooO  #########################################",
"#########################################.....#  XX.@@     #########################################",
"#########################################.....#  XX.@@     #########################################",
"###############################################  XXX@@@@@XX#########################################",
"##############################################+  XXX@@@@OXX#########################################",
"##############################################+  XXX@@@@OXX#########################################",
"############################################+++  XX XXXXX###########################################",
"############################################+++  XX XXXXX###########################################",
"############################################+++  XX ++++############################################",
"############################################++++++++++++############################################",
"############################################++++++++++++############################################",
"##############################################++++++++##############################################",
"####################################################################################################",
"####################################################################################################",
"####################################################################################################",
"####################################################################################################",
"####################################################################################################",
"####################################################################################################",
"####################################################################################################",
"####################################################################################################",
"####################################################################################################",
"####################################################################################################",
"####################################################################################################",
"####################################################################################################",
"####################################################################################################",
"####################################################################################################",
"####################################################################################################"
};
