/* XPM */
static char *result[] = {
/* columns rows colors chars-per-pixel */
"100 100 8 1 ",
"  c #75343F",
". c #284134",
"X c #39633C",
"o c #8E3A42",
"O c #B04640",
"+ c #AE7D50",
"@ c #C45640",
"# c None",
/* pixels */
"####################################################################################################",
"####################################################################################################",
"####################################################################################################",
"####################################################################################################",
"####################################################################################################",
"####################################################################################################",
"####################################################################################################",
"####################################################################################################",
"####################################################################################################",
"####################################################################################################",
"####################################################################################################",
"####################################################################################################",
"####################################################################################################",
"####################################################################################################",
"####################################################################################################",
"####################################################################################################",
"####################################################################################################",
"####################################################################################################",
"####################################################################################################",
"####################################################################################################",
"####################################################################################################",
"####################################################################################################",
"####################################################################################################",
"####################################################################################################",
"####################################################################################################",
"####################################################################################################",
"####################################################################################################",
"####################################################################################################",
"####################################################################################################",
"####################################################################################################",
"####################################################################################################",
"####################################################################################################",
"####################################################################################################",
"####################################################################################################",
"####################################################################################################",
"####################################################################################################",
"####################################################################################################",
"####################################################################################################",
"####################################################################################################",
"####################################################################################################",
"####################################################################################################",
"####################################################################################################",
"####################################################################################################",
"####################################################################################################",
"####################################################################################################",
"####################################################################################################",
"####################################################################################################",
"####################################################################################################",
"####################################################################################################",
"####################################################################################################",
"####################################################################################################",
"####################################################################################################",
"####################################################################################################",
"####################################################################################################",
"####################################################################################################",
"####################################################################################################",
"####################################################################################################",
"####################################################################################################",
"####################################################################################################",
"####################################################################################################",
"#####################################################.....##########################################",
"#####################################################.....##########################################",
"#######################################.....#######..XXX..##########################################",
"#######################################.....#######..XXX..##########################################",
"#######################################..XXX..#####..XXX.....#######################################",
"#######################################....XXX...##..X..XXX..#######################################",
"#######################################....XXX...##..X..XXX..#######################################",
"#####################################..XXXXXXXXXX..XXXXXXX...#######################################",
"#####################################..XXXXXXXXXX..XXXXXXX...#######################################",
"#####################################..XXXX.XX..XXX...XX...XX..#####################################",
"#####################################......XXX.....XXX....XXX..#####################################",
"#####################################......XXX.....XXX....XXX..#####################################",
"#########################################..XXX...XX..XXX.....#######################################",
"#########################################..XXX...XX..XXX.....#######################################",
"#########################################.....##.XXoo.....XXX..#####################################",
"################################################.ooOO@@@OO.XX.. ####################################",
"################################################.ooOO@@@OO.XX.. ####################################",
"##############################################++.oo@@@@@@@O..oo ####################################",
"##############################################++.oo@@@@@@@O..oo ####################################",
"############################################++++.oo@@@@@@@OOOoo ####################################",
"############################################++++.ooOO@@@OOOOOoo ####################################",
"############################################++++.ooOO@@@OOOOOoo ####################################",
"############################################+++++++ooOOOOOOoo  #####################################",
"############################################+++++++ooOOOOOOoo  #####################################",
"##############################################+++++++        #######################################",
"####################################################################################################",
"####################################################################################################",
"####################################################################################################",
"####################################################################################################",
"####################################################################################################",
"####################################################################################################",
"####################################################################################################",
"####################################################################################################",
"####################################################################################################",
"####################################################################################################",
"####################################################################################################",
"####################################################################################################",
"####################################################################################################",
"####################################################################################################",
"####################################################################################################"
};
