/* XPM */
static char *result[] = {
/* columns rows colors chars-per-pixel */
"100 100 8 1 ",
"  c #2F2F2E",
". c #3B3B39",
"X c #4F4F4E",
"o c #9D5021",
"O c #D67941",
"+ c gray72",
"@ c white",
"# c None",
/* pixels */
"####################################################################################################",
"####################################################################################################",
"####################################################################################################",
"####################################################################################################",
"####################################################################################################",
"####################################################################################################",
"####################################################################################################",
"####################################################################################################",
"####################################################################################################",
"####################################################################################################",
"####################################################################################################",
"####################################################################################################",
"####################################################################################################",
"####################################################################################################",
"####################################################################################################",
"####################################################################################################",
"####################################################################################################",
"####################################################################################################",
"####################################################################################################",
"####################################################################################################",
"####################################################################################################",
"####################################################################################################",
"####################################################################################################",
"####################################################################################################",
"####################################################################################################",
"####################################################################################################",
"####################################################################################################",
"####################################################################################################",
"####################################################################################################",
"####################################################################################################",
"####################################################################################################",
"####################################################################################################",
"####################################################################################################",
"####################################################################################################",
"####################################################################################################",
"####################################################################################################",
"####################################################################################################",
"####################################################################################################",
"####################################################################################################",
"####################################################################################################",
"####################################################################################################",
"####################################################################################################",
"####################################################################################################",
"####################################################################################################",
"####################################################################################################",
"####################################################################################################",
"####################################################################################################",
"####################################################################################################",
"####################################################################################################",
"####################################################################################################",
"####################################################################################################",
"####################################################################################################",
"####################################################################################################",
"####################################################################################################",
"####################################################################################################",
"####################################################################################################",
"####################################################################################################",
"##################################################################     #############################",
"##################################################################     #############################",
"##################################################################     #############################",
"#####################################################       ###   ooOOO  ###########################",
"#####################################################       ###   ooOOO  ###########################",
"#####################################################       ###   ooOOO  ###########################",
"#####################################################  oooOO   ###  @@@OO   ########################",
"#####################################################  oooOO   ###  @@@OO   ########################",
"#######################################################             @@@OO   ########################",
"#######################################################             @@@OO   ########################",
"#######################################################             @@@OO   ########################",
"#######################################################   ooooooooooOOOOO   ########################",
"#######################################################   ooooooooooOOOOO   ########################",
"#######################################################   ooooooooooOOOOO   ########################",
"#####################################################  oooooooo   OOOOOOO   ########################",
"#####################################################  oooooooo   OOOOOOO   ########################",
"##################################        ########        oooooOOOOOOOOOOOOO  ######################",
"##################################        ########        oooooOOOOOOOOOOOOO  ######################",
"##################################        ########        oooooOOOOOOOOOOOOO  ######################",
"#############################     OOOOOOOO   #####   +++++++@@@@@@@@@@@@@@@@  ######################",
"#############################     OOOOOOOO   #####   +++++++@@@@@@@@@@@@@@@@  ######################",
"########################     @@@ooOOOOOOOO                +++++@@@@@@@@     ########################",
"########################     @@@ooOOOOOOOO                +++++@@@@@@@@     ########################",
"########################     @@@ooOOOOOOOO                +++++@@@@@@@@     ########################",
"#####################   +++@@@@@oooooooooo   ooooooooooooo             #############################",
"#####################   +++@@@@@oooooooooo   ooooooooooooo             #############################",
"#####################   +++@@@@@oooooooooo   ooooooooooooo             #############################",
"#####################                     oooooooooooOOOOOOOOOO@@@@@   #############################",
"#####################                     oooooooooooOOOOOOOOOO@@@@@   #############################",
"########################################  ooooooooOOOOOOOOoo++++++     #############################",
"########################################  ooooooooOOOOOOOOoo++++++     #############################",
"########################################  ooooooooOOOOOOOOoo++++++     #############################",
"########################################  ooo          OOO        oo   #############################",
"########################################  ooo          OOO        oo   #############################",
"########################################  ...  ...     XXX  ###   XX   #############################",
"########################################  ...  ...     XXX  ###   XX   #############################",
"########################################  ...  ...     XXX  ###   XX   #############################",
"########################################     ##   #####     ######     #############################",
"########################################     ##   #####     ######     #############################",
"####################################################################################################",
"####################################################################################################",
"####################################################################################################",
"####################################################################################################"
};
