/* XPM */
static char *result[] = {
/* columns rows colors chars-per-pixel */
"100 100 8 1 ",
"  c #2F2F2E",
". c #393835",
"X c #4F4F4E",
"o c #9D5021",
"O c #D67941",
"+ c gray72",
"@ c white",
"# c None",
/* pixels */
"####################################################################################################",
"####################################################################################################",
"####################################################################################################",
"####################################################################################################",
"####################################################################################################",
"####################################################################################################",
"####################################################################################################",
"####################################################################################################",
"####################################################################################################",
"####################################################################################################",
"####################################################################################################",
"####################################################################################################",
"####################################################################################################",
"####################################################################################################",
"####################################################################################################",
"####################################################################################################",
"####################################################################################################",
"####################################################################################################",
"####################################################################################################",
"####################################################################################################",
"####################################################################################################",
"####################################################################################################",
"####################################################################################################",
"####################################################################################################",
"####################################################################################################",
"####################################################################################################",
"####################################################################################################",
"####################################################################################################",
"####################################################################################################",
"####################################################################################################",
"####################################################################################################",
"####################################################################################################",
"####################################################################################################",
"####################################################################################################",
"####################################################################################################",
"####################################################################################################",
"####################################################################################################",
"####################################################################################################",
"####################################################################################################",
"####################################################################################################",
"####################################################################################################",
"####################################################################################################",
"####################################################################################################",
"####################################################################################################",
"####################################################################################################",
"####################################################################################################",
"####################################################################################################",
"####################################################################################################",
"####################################################################################################",
"####################################################################################################",
"####################################################################################################",
"####################################################################################################",
"####################################################################################################",
"####################################################################################################",
"####################################################################################################",
"####################################################################################################",
"#########################################################     ######################################",
"#########################################################     ######################################",
"#########################################################     ######################################",
"#########################################################     ######################################",
"#########################################################     ######################################",
"#########################################################     ######################################",
"######################################################   oo   #####        #########################",
"######################################################   oo   #####        #########################",
"######################################################   oo   #####        #########################",
"####################################################  ooo@@   ###  oooOO   #########################",
"####################################################  ooo@@   ###  oooOO   #########################",
"######################         #####################  ooo@@             ############################",
"######################         #####################  ooo@@             ############################",
"######################         #####################  ooo@@             ############################",
"######################      +++        #############  oooooOOOOOOOOOOO  ############################",
"######################      +++        #############  oooooOOOOOOOOOOO  ############################",
"######################      +++        #############  oooooOOOOOOOOOOO  ############################",
"######################      +++@@@@@OOO  ###########  oooooOOO   ooooooo   #########################",
"######################      +++@@@@@OOO  ###########  oooooOOO   ooooooo   #########################",
"############################   ++oooOOOOO   #####   oooooooOOOOOOOOOOO      ########################",
"############################   ++oooOOOOO   #####   oooooooOOOOOOOOOOO      ########################",
"############################   ++oooOOOOO   #####   oooooooOOOOOOOOOOO      ########################",
"###############################  oooOOOOOOOO  ###   +++++@@@@@@@@@@@@@@@@@@ ########################",
"###############################  oooOOOOOOOO  ###   +++++@@@@@@@@@@@@@@@@@@ ########################",
"###############################  ooooooOOOOO             +++++@@@@@@@@     #########################",
"###############################  ooooooOOOOO             +++++@@@@@@@@     #########################",
"###############################  ooooooOOOOO             +++++@@@@@@@@     #########################",
"#################################   ooooo   ooooooooooooo             ##############################",
"#################################   ooooo   ooooooooooooo             ##############################",
"#################################   ooooo   ooooooooooooo             ##############################",
"####################################     oooooooooooOOOOOOOOOO@@@@@   ##############################",
"####################################     oooooooooooOOOOOOOOOO@@@@@   ##############################",
"#######################################  ooooooooOOOOOOOOoo++++++     ##############################",
"#######################################  ooooooooOOOOOOOOoo++++++     ##############################",
"#######################################  ooooooooOOOOOOOOoo++++++     ##############################",
"#######################################  ooo          OOO        oo   ##############################",
"#######################################  ooo          OOO        oo   ##############################",
"#######################################  ...  ...     XXX  ###   XX   ##############################",
"#######################################  ...  ...     XXX  ###   XX   ##############################",
"#######################################  ...  ...     XXX  ###   XX   ##############################",
"#######################################.... ##   #####     ######     ##############################",
"####################################### ... ##...#####.....######.....##############################",
"####################################################################################################",
"####################################################################################################"
};
