/* XPM */
static char *_a84715b6a17420de2f33da351fc6fb74iVmHvQvbunO9vBT[] = {
/* columns rows colors chars-per-pixel */
"100 100 8 1 ",
"  c None",
". c #2F2F2E",
"X c #393835",
"o c #4F4F4E",
"O c #9D5021",
"+ c #D67941",
"@ c gray72",
"# c white",
/* pixels */
"                                                                                                    ",
"                                                                                                    ",
"                                                                                                    ",
"                                                                                                    ",
"                                                                                                    ",
"                                                                                                    ",
"                                                                                                    ",
"                                                                                                    ",
"                                                                                                    ",
"                                                                                                    ",
"                                                                                                    ",
"                                                                                                    ",
"                                                                                                    ",
"                                                                                                    ",
"                                                                                                    ",
"                                                                                                    ",
"                                                                                                    ",
"                                                                                                    ",
"                                                                                                    ",
"                                                                                                    ",
"                                                                                                    ",
"                                                                                                    ",
"                                                                                                    ",
"                                                                                                    ",
"                                                                                                    ",
"                                                                                                    ",
"                                                                                                    ",
"                                                                                                    ",
"                                                                                                    ",
"                                                                                                    ",
"                                                                                                    ",
"                                                                                                    ",
"                                                                                                    ",
"                                                                                                    ",
"                                                                                                    ",
"                                                                                                    ",
"                                                                                                    ",
"                                                                                                    ",
"                                                                                                    ",
"                                                                                                    ",
"                                                                                                    ",
"                                                                                                    ",
"                                                                                                    ",
"                                                                                                    ",
"                                                                                                    ",
"                                                                                                    ",
"                                                                                                    ",
"                                                                                                    ",
"                                                                                                    ",
"                                                                                                    ",
"                                                                                                    ",
"                                                                                                    ",
"                                                                                                    ",
"                                                                                                    ",
"                                                                                                    ",
"                                                                                                    ",
"                                    .....                                                           ",
"                                    .....                                                           ",
"                                    .....                                                           ",
"                                    .....                                                           ",
"                                    .....                                                           ",
"                                    .....                                                           ",
"                       ........     ...OO...                                                        ",
"                       ........     ...OO...                                                        ",
"                       ........     ...OO...                                                        ",
"                       ...++OOO..   ...##OOO..                                                      ",
"                       ...++OOO..   ...##OOO..                                                      ",
"                          .............##OOO..                     .........                        ",
"                          .............##OOO..                     .........                        ",
"                          .............##OOO..                     .........                        ",
"                          ..+++++++++++OOOOO..             ........@@@......                        ",
"                          ..+++++++++++OOOOO..             ........@@@......                        ",
"                          ..+++++++++++OOOOO..             ........@@@......                        ",
"                       ...OOOOOOO...+++OOOOO..           ..+++#####@@@......                        ",
"                       ...OOOOOOO...+++OOOOO..           ..+++#####@@@......                        ",
"                      ......+++++++++++OOOOOOO...     ...+++++OOO@@...                              ",
"                      ......+++++++++++OOOOOOO...     ...+++++OOO@@...                              ",
"                      ......+++++++++++OOOOOOO...     ...+++++OOO@@...                              ",
"                      .##################@@@@@...   ..++++++++OOO..                                 ",
"                      .##################@@@@@...   ..++++++++OOO..                                 ",
"                       .....########@@@@@.............+++++OOOOOO..                                 ",
"                       .....########@@@@@.............+++++OOOOOO..                                 ",
"                       .....########@@@@@.............+++++OOOOOO..                                 ",
"                            .............OOOOOOOOOOOOO...OOOOO...                                   ",
"                            .............OOOOOOOOOOOOO...OOOOO...                                   ",
"                            .............OOOOOOOOOOOOO...OOOOO...                                   ",
"                            ...#####++++++++++OOOOOOOOOOO.....                                      ",
"                            ...#####++++++++++OOOOOOOOOOO.....                                      ",
"                            .....@@@@@@OO++++++++OOOOOOOO..                                         ",
"                            .....@@@@@@OO++++++++OOOOOOOO..                                         ",
"                            .....@@@@@@OO++++++++OOOOOOOO..                                         ",
"                            ...OO........+++..........OOO..                                         ",
"                            ...OO........+++..........OOO..                                         ",
"                            ...oo...   ..ooo.....XXX..XXX..                                         ",
"                            ...oo...   ..ooo.....XXX..XXX..                                         ",
"                            ...oo...   ..ooo.....XXX..XXX..                                         ",
"                            .....      .....     ...  .XXXX                                         ",
"                            XXXXX      XXXXX     XXX  .XXX.                                         ",
"                                                                                                    ",
"                                                                                                    "
};
