/* XPM */
static char *b3a99c946a74464b9caaaabf8e91d0410qS3gf46OGBFUL6x[] = {
/* columns rows colors chars-per-pixel */
"100 100 8 1 ",
"  c None",
". c #2F2F2E",
"X c #3B3B39",
"o c #4F4F4E",
"O c #9D5021",
"+ c #D67941",
"@ c gray72",
"# c white",
/* pixels */
"                                                                                                    ",
"                                                                                                    ",
"                                                                                                    ",
"                                                                                                    ",
"                                                                                                    ",
"                                                                                                    ",
"                                                                                                    ",
"                                                                                                    ",
"                                                                                                    ",
"                                                                                                    ",
"                                                                                                    ",
"                                                                                                    ",
"                                                                                                    ",
"                                                                                                    ",
"                                                                                                    ",
"                                                                                                    ",
"                                                                                                    ",
"                                                                                                    ",
"                                                                                                    ",
"                                                                                                    ",
"                                                                                                    ",
"                                                                                                    ",
"                                                                                                    ",
"                                                                                                    ",
"                                                                                                    ",
"                                                                                                    ",
"                                                                                                    ",
"                                                                                                    ",
"                                                                                                    ",
"                                                                                                    ",
"                                                                                                    ",
"                                                                                                    ",
"                                                                                                    ",
"                                                                                                    ",
"                                                                                                    ",
"                                                                                                    ",
"                                                                                                    ",
"                                                                                                    ",
"                                                                                                    ",
"                                                                                                    ",
"                                                                                                    ",
"                                                                                                    ",
"                                                                                                    ",
"                                                                                                    ",
"                                                                                                    ",
"                                                                                                    ",
"                                                                                                    ",
"                                                                                                    ",
"                                                                                                    ",
"                                                                                                    ",
"                                                                                                    ",
"                                                                                                    ",
"                                                                                                    ",
"                                                                                                    ",
"                                                                                                    ",
"                                                                                                    ",
"                                                                                                    ",
"                                     .....                                                          ",
"                                     .....                                                          ",
"                                     .....                                                          ",
"                                     .....                                                          ",
"                         .......     ...OO...                                                       ",
"                         .......     ...OO...                                                       ",
"                         .......     ...OO...                                                       ",
"                         ..+++OO...  ...##OOO..                                                     ",
"                         ..+++OO...  ...##OOO..                                                     ",
"                           ...............OOO..                   ..                                ",
"                           ...............OOO..                   ..                                ",
"                           ...............OOO..                   ..                                ",
"                           ...++++++++++++OOO..                ...@@...                             ",
"                           ...++++++++++++OOO..                ...@@...                             ",
"                           ...++++++++++++OOO..                ...@@...                             ",
"                           .....OOOOOOOO..OOO..                ...##@@@....                         ",
"                           .....OOOOOOOO..OOO..                ...##@@@....                         ",
"                         ..+++++.....+++++OOOOO....            ...##OOO....                         ",
"                         ..+++++.....+++++OOOOO....            ...##OOO....                         ",
"                         ..+++++.....+++++OOOOO....            ...##OOO....                         ",
"                         ..###############@@@@@....          ..+++++OOO....                         ",
"                         ..###############@@@@@....          ..+++++OOO....                         ",
"                           ...############@@@................+++++++OOO....                         ",
"                           ...############@@@................+++++++OOO....                         ",
"                           ...############@@@................+++++++OOO....                         ",
"                              ...............OOOOOOOOOOOOO...OO+++++OOO....                         ",
"                              ...............OOOOOOOOOOOOO...OO+++++OOO....                         ",
"                              ...............OOOOOOOOOOOOO...OO+++++OOO....                         ",
"                                ...#####+++++++++++OOOOOOOOOO..OOOOO...                             ",
"                                ...#####+++++++++++OOOOOOOOOO..OOOOO...                             ",
"                                .....@@@@@OOO++++++++OOOOOOOO.......                                ",
"                                .....@@@@@OOO++++++++OOOOOOOO.......                                ",
"                                .....@@@@@OOO++++++++OOOOOOOO.......                                ",
"                                ...OO........++...........OOO..                                     ",
"                                ...OO........++...........OOO..                                     ",
"                                ...oo...  ...oo......XXX..XXX..                                     ",
"                                ...oo...  ...oo......XXX..XXX..                                     ",
"                                ...oo...  ...oo......XXX..XXX..                                     ",
"                                .....     .....      ...  .....                                     ",
"                                .....     .....      ...  .....                                     ",
"                                                                                                    ",
"                                                                                                    ",
"                                                                                                    "
};
