/* XPM */
static char *_62a79e960dc47d6ceac4e29bb540ee6FCSpxKj09Co3oo9v[] = {
/* columns rows colors chars-per-pixel */
"100 100 8 1 ",
"  c None",
". c #2F2F2E",
"X c #3B3B39",
"o c #4F4F4E",
"O c #9D5021",
"+ c #D67941",
"@ c gray72",
"# c white",
/* pixels */
"                                                                                                    ",
"                                                                                                    ",
"                                                                                                    ",
"                                                                                                    ",
"                                                                                                    ",
"                                                                                                    ",
"                                                                                                    ",
"                                                                                                    ",
"                                                                                                    ",
"                                                                                                    ",
"                                                                                                    ",
"                                                                                                    ",
"                                                                                                    ",
"                                                                                                    ",
"                                                                                                    ",
"                                                                                                    ",
"                                                                                                    ",
"                                                                                                    ",
"                                                                                                    ",
"                                                                                                    ",
"                                                                                                    ",
"                                                                                                    ",
"                                                                                                    ",
"                                                                                                    ",
"                                                                                                    ",
"                                                                                                    ",
"                                                                                                    ",
"                                                                                                    ",
"                                                                                                    ",
"                                                                                                    ",
"                                                                                                    ",
"                                                                                                    ",
"                                                                                                    ",
"                                                                                                    ",
"                                                                                                    ",
"                                                                                                    ",
"                                                                                                    ",
"                                                                                                    ",
"                                                                                                    ",
"                                                                                                    ",
"                                                                                                    ",
"                                                                                                    ",
"                                                                                                    ",
"                                                                                                    ",
"                                                                                                    ",
"                                                                                                    ",
"                                                                                                    ",
"                                                                                                    ",
"                                                                                                    ",
"                                                                                                    ",
"                                                                                                    ",
"                                                                                                    ",
"                                                                                                    ",
"                                                                                                    ",
"                                                                                                    ",
"                                                                                                    ",
"                                                                                                    ",
"                                                                                                    ",
"                               .....                                                                ",
"                               .....                                                                ",
"                               .....                                                                ",
"                             ..+++..      .......                                                   ",
"                             ..+++..      .......                                                   ",
"                             ..+++..      .......                                                   ",
"                          ...++###..   ...++OOO..                                                   ",
"                          ...++###..   ...++OOO..                                                   ",
"                          ...++................                                                     ",
"                          ...++................                                                     ",
"                          ...++................                                                     ",
"                          ...++++++++++OOOOO...                     ..                              ",
"                          ...++++++++++OOOOO...                     ..                              ",
"                          ...++++++++++OOOOO...                     ..                              ",
"                          ...++...OOOOOOOO.....                  ...@@...                           ",
"                          ...++...OOOOOOOO.....                  ...@@...                           ",
"                        ..++++++++++......OOOOO..                ...##@@@...                        ",
"                        ..++++++++++......OOOOO..                ...##@@@...                        ",
"                        ..++++++++++......OOOOO..                ...##@@@...                        ",
"                        ..#############@@@@@@@@..           ........##OOO...                        ",
"                        ..#############@@@@@@@@..           ........##OOO...                        ",
"                          ...#######@@@@@@@@................++++++++OOOOO...                        ",
"                          ...#######@@@@@@@@................++++++++OOOOO...                        ",
"                          ...#######@@@@@@@@................++++++++OOOOO...                        ",
"                             ...............OOOOOOOOOOOOO...OO++++++OOOOO...                        ",
"                             ...............OOOOOOOOOOOOO...OO++++++OOOOO...                        ",
"                             ...............OOOOOOOOOOOOO...OO++++++OOOOO...                        ",
"                               ...#####++++++++++OOOOOOOOOOO..OOOOOOOO...                           ",
"                               ...#####++++++++++OOOOOOOOOOO..OOOOOOOO...                           ",
"                               .....@@@@@@OO++++++++OOOOOOOO..........                              ",
"                               .....@@@@@@OO++++++++OOOOOOOO..........                              ",
"                               .....@@@@@@OO++++++++OOOOOOOO..........                              ",
"                               ...OO........+++..........OOO..                                      ",
"                               ...OO........+++..........OOO..                                      ",
"                               ...oo...   ..ooo.....XXX..XXX..                                      ",
"                               ...oo...   ..ooo.....XXX..XXX..                                      ",
"                               ...oo...   ..ooo.....XXX..XXX..                                      ",
"                               .....      .....     ...  .....                                      ",
"                               .....      .....     ...  .....                                      ",
"                                                                                                    ",
"                                                                                                    ",
"                                                                                                    "
};
