/* XPM */
static char *_132f0ae17cb465fd44d9f6865c36c95JBfwuRbxeK8KWH0m[] = {
/* columns rows colors chars-per-pixel */
"100 100 8 1 ",
"  c None",
". c #2F2F2E",
"X c #3B3B39",
"o c #4F4F4E",
"O c #9D5021",
"+ c #D67941",
"@ c gray72",
"# c white",
/* pixels */
"                                                                                                    ",
"                                                                                                    ",
"                                                                                                    ",
"                                                                                                    ",
"                                                                                                    ",
"                                                                                                    ",
"                                                                                                    ",
"                                                                                                    ",
"                                                                                                    ",
"                                                                                                    ",
"                                                                                                    ",
"                                                                                                    ",
"                                                                                                    ",
"                                                                                                    ",
"                                                                                                    ",
"                                                                                                    ",
"                                                                                                    ",
"                                                                                                    ",
"                                                                                                    ",
"                                                                                                    ",
"                                                                                                    ",
"                                                                                                    ",
"                                                                                                    ",
"                                                                                                    ",
"                                                                                                    ",
"                                                                                                    ",
"                                                                                                    ",
"                                                                                                    ",
"                                                                                                    ",
"                                                                                                    ",
"                                                                                                    ",
"                                                                                                    ",
"                                                                                                    ",
"                                                                                                    ",
"                                                                                                    ",
"                                                                                                    ",
"                                                                                                    ",
"                                                                                                    ",
"                                                                                                    ",
"                                                                                                    ",
"                                                                                                    ",
"                                                                                                    ",
"                                                                                                    ",
"                                                                                                    ",
"                                                                                                    ",
"                                                                                                    ",
"                                                                                                    ",
"                                                                                                    ",
"                                                                                                    ",
"                                                                                                    ",
"                                                                                                    ",
"                                                                                                    ",
"                                                                                                    ",
"                                                                                                    ",
"                                                                                                    ",
"                                                                                                    ",
"                                                                                                    ",
"                            .....                                                                   ",
"                            .....                                                                   ",
"                            .....                                                                   ",
"                          ..+++OO...   .......                                                      ",
"                          ..+++OO...   .......                                                      ",
"                          ..+++OO...   .......                                                      ",
"                       ...++###..   ...++OOO..                                                      ",
"                       ...++###..   ...++OOO..                                                      ",
"                       ...++###.............                                                        ",
"                       ...++###.............                                                        ",
"                       ...++###.............                                                        ",
"                       ...+++++OOOOOOOOOO...                                                        ",
"                       ...+++++OOOOOOOOOO...                                                        ",
"                       ...+++++OOOOOOOOOO...                                                        ",
"                       ...+++++++...OOOOOOOO..                                                      ",
"                       ...+++++++...OOOOOOOO..                                                      ",
"                     ..+++++++++++++OOOOO........        ........                                   ",
"                     ..+++++++++++++OOOOO........        ........                                   ",
"                     ..+++++++++++++OOOOO........        ........                                   ",
"                     ..################@@@@@@@...     ...++++++++.....                              ",
"                     ..################@@@@@@@...     ...++++++++.....                              ",
"                       .....########@@@@@................++++++++OO###.....                         ",
"                       .....########@@@@@................++++++++OO###.....                         ",
"                       .....########@@@@@................++++++++OO###.....                         ",
"                            .............OOOOOOOOOOOOO...OOOOOOOOOO#####@@@...                      ",
"                            .............OOOOOOOOOOOOO...OOOOOOOOOO#####@@@...                      ",
"                            .............OOOOOOOOOOOOO...OOOOOOOOOO#####@@@...                      ",
"                            ...#####++++++++++OOOOOOOOOOO.....................                      ",
"                            ...#####++++++++++OOOOOOOOOOO.....................                      ",
"                            .....@@@@@@OO++++++++OOOOOOOO..                                         ",
"                            .....@@@@@@OO++++++++OOOOOOOO..                                         ",
"                            .....@@@@@@OO++++++++OOOOOOOO..                                         ",
"                            ...OO........+++..........OOO..                                         ",
"                            ...OO........+++..........OOO..                                         ",
"                            ...oo...   ..ooo.....XXX..XXX..                                         ",
"                            ...oo...   ..ooo.....XXX..XXX..                                         ",
"                            ...oo...   ..ooo.....XXX..XXX..                                         ",
"                            .....      .....     ...  .....                                         ",
"                            .....      .....     ...  .....                                         ",
"                                                                                                    ",
"                                                                                                    ",
"                                                                                                    ",
"                                                                                                    "
};
